<svg id="Layer_1" data-name="Layer 1" xmlns="http://www.w3.org/2000/svg" xmlns:xlink="http://www.w3.org/1999/xlink" viewBox="0 0 374.51 371.89"><defs><style>.cls-1,.cls-4{fill:#b0ff00;}.cls-1{opacity:0.18;isolation:isolate;}.cls-2{fill:url(#linear-gradient);}.cls-3{fill:#896a49;}.cls-5{fill:url(#linear-gradient-2);}.cls-6{fill:#2e2e3f;}.cls-7{fill:url(#linear-gradient-3);}.cls-8{fill:url(#linear-gradient-4);}.cls-9{fill:url(#linear-gradient-5);}.cls-10{fill:url(#linear-gradient-6);}</style><linearGradient id="linear-gradient" x1="188.74" y1="225" x2="183.4" y2="-87.74" gradientTransform="matrix(1, 0, 0, -1, 0, 374.03)" gradientUnits="userSpaceOnUse"><stop offset="0.01"/><stop offset="0.13" stop-opacity="0.69"/><stop offset="1" stop-opacity="0"/></linearGradient><linearGradient id="linear-gradient-2" x1="217.52" y1="201.54" x2="253.75" y2="186.69" gradientTransform="matrix(1, 0, 0, -1, -37.58, 355.27)" xlink:href="#linear-gradient"/><linearGradient id="linear-gradient-3" x1="255.36" y1="129.74" x2="294.4" y2="42.39" gradientTransform="matrix(1, 0, 0, -1, -37.58, 355.27)" xlink:href="#linear-gradient"/><linearGradient id="linear-gradient-4" x1="162.82" y1="153.54" x2="224.3" y2="184.28" gradientTransform="matrix(1, 0, 0, -1, -37.58, 355.27)" xlink:href="#linear-gradient"/><linearGradient id="linear-gradient-5" x1="274.68" y1="160.02" x2="181.9" y2="170.42" gradientTransform="matrix(1, 0, 0, -1, -37.58, 355.27)" xlink:href="#linear-gradient"/><linearGradient id="linear-gradient-6" x1="106.75" y1="49.49" x2="239.18" y2="182.63" gradientTransform="matrix(1, 0, 0, -1, -37.58, 355.27)" xlink:href="#linear-gradient"/></defs><title>thinking</title><path class="cls-1" d="M62.79,27.47C34.62,51,18,87.1,16.34,123.74c-.94,21.58,3,43.2,1.29,64.73-3.21,40-25.76,79.67-14.52,118.16,11.55,39.55,55.44,61.34,96.52,64.6s82-7.1,123.12-8.64c22.42-.85,44.95.93,67.26-1.43s45.06-9.38,61.08-25.08,23.49-38.33,23.41-60.57-7.24-44-17.43-63.73c-10.72-20.8-25-40.31-30-63.18-7-32.21,4.46-70.12-16-96-12.68-16-33.93-21.93-53.73-26.94-32.92-8.31-66.6-20-100.32-24.47a124.2,124.2,0,0,0-50.6,3.31C100.13,6.27,62.79,19,62.79,27.47Z" transform="translate(0 0.03)"/><ellipse class="cls-2" cx="186.11" cy="303.21" rx="145.23" ry="30.29"/><path class="cls-3" d="M250.21,304.89a6,6,0,0,0,1.56,2.6,5.13,5.13,0,0,0,2.42,1c3,.52,7-2.55,6.61-4.2s.18-7.43-.12-9.1a6.47,6.47,0,0,0-.58-2.16c-.9-1.55-3.05-1.72-4.83-1.55-2.37.24-6.06,1-6.79,3.62C247.72,297.92,249.25,302.27,250.21,304.89Z" transform="translate(0 0.03)"/><path class="cls-4" d="M155.64,138.76c-3.34,2.48-4.36,7.23-3.43,11.29s3.45,7.56,6.11,10.76a101.33,101.33,0,0,0,24,21.05c3.3,2.07,6.84,4,10.72,4.43,4.36.48,8.69-1,12.84-2.38a17.1,17.1,0,0,0,5.42-2.61A13.61,13.61,0,0,0,215,176a43,43,0,0,0,3.3-15.58c.26-7-1.21-7.16-3.67-13.77-1.84-5-4.83-10.82-9.94-9.41C191,141,195,155.61,195,162.26c-4.51-5.31-12.89-12.94-18.13-17.53C172.51,140.9,161.42,134.48,155.64,138.76Z" transform="translate(0 0.03)"/><path class="cls-5" d="M155.64,138.76c-3.34,2.48-4.36,7.23-3.43,11.29s3.45,7.56,6.11,10.76a101.33,101.33,0,0,0,24,21.05c3.3,2.07,6.84,4,10.72,4.43,4.36.48,8.69-1,12.84-2.38a17.1,17.1,0,0,0,5.42-2.61A13.61,13.61,0,0,0,215,176a43,43,0,0,0,3.3-15.58c.26-7-1.21-7.16-3.67-13.77-1.84-5-4.83-10.82-9.94-9.41C191,141,195,155.61,195,162.26c-4.51-5.31-12.89-12.94-18.13-17.53C172.51,140.9,161.42,134.48,155.64,138.76Z" transform="translate(0 0.03)"/><path class="cls-3" d="M198.57,117.21c-1.3,2.47-.09,5.69-1.34,8.18a6.48,6.48,0,0,1-3.36,2.87c-2.48,1.06-5.3,1.21-7.72,2.38a10,10,0,0,0-4.8,5c-.93,2.2-1.13,4.84-2.87,6.48-2.09,2-5.43,1.59-8.2.81-1.9-.53-3.92-1.31-4.94-3a7,7,0,0,1-.77-3.66c0-3.06.91-6.05,1.5-9.05.85-4.31,1.14-8.72,2.15-13s2.84-8.52,6.16-11.4,10.61-10.31,14.8-9.58c4,.71,4.9,9.62,7.14,13a33.16,33.16,0,0,1,2,4C199.73,113.2,200.1,114.32,198.57,117.21Z" transform="translate(0 0.03)"/><path class="cls-6" d="M192.17,94.79c-.82,2.66-3.43,4.28-5.81,5.72s-5,3.17-5.58,5.88c-.4,1.66,0,3.54-1,5a6.75,6.75,0,0,0-1.34-2,2.23,2.23,0,0,0-2.24-.54,2.39,2.39,0,0,0-1.26,2.23,4.19,4.19,0,0,0,3.46,4.08,13,13,0,0,0-2.18,5.59c-.29,2.08-.14,4.39-1.46,6a4.19,4.19,0,0,1-5.74.55,3.67,3.67,0,0,1-1.43,1.64c-1.69-.88-1.65-3.23-2-5.1-.83-5-5.53-8.49-7.09-13.31a21,21,0,0,1-.51-8,21.1,21.1,0,0,1,1.51-7.44A15.29,15.29,0,0,1,167.37,88a41.91,41.91,0,0,1,9.53-2.6A55.2,55.2,0,0,1,185.07,84C190.15,83.86,193.54,90.35,192.17,94.79Z" transform="translate(0 0.03)"/><path class="cls-6" d="M238.54,204.86a9,9,0,0,1,3,.47,7.56,7.56,0,0,1,2.3,1.62c7.64,7.16,10,18.19,11.87,28.48,3.23,17.26,6.46,34.6,6.9,52.15.09,3.46,1.49,6.61-.13,9.66s-9.05,3.35-12.32,2.23-2.46-2.43-3.78-5.66c-2.69-6.54-6.49-12.54-10.26-18.54l-13.78-21.83c-2.2-3.48-4.49-7.06-7.86-9.44-4.74-3.34-10.84-3.79-16.54-4.84s-11.87-3.28-14.49-8.45c-4.69-9.29,1.53-21.93,11.51-23.11C209.47,205.85,223.84,204.27,238.54,204.86Z" transform="translate(0 0.03)"/><path class="cls-7" d="M238.54,204.86a9,9,0,0,1,3,.47,7.56,7.56,0,0,1,2.3,1.62c7.64,7.16,10,18.19,11.87,28.48,3.23,17.26,6.46,34.6,6.9,52.15.09,3.46.75,6.46-.87,9.52s-6.67,3.78-9.95,2.67-4.09-2.73-5.41-6c-2.69-6.5-6.49-12.5-10.26-18.5l-13.78-21.83c-2.2-3.48-4.49-7.06-7.86-9.44-4.74-3.34-10.84-3.79-16.54-4.84s-11.87-3.28-14.49-8.45c-4.69-9.29,1.53-21.93,11.51-23.11C209.47,205.85,223.84,204.27,238.54,204.86Z" transform="translate(0 0.03)"/><path class="cls-3" d="M254.72,261.48a9.63,9.63,0,0,0,1,3.13c1.39,2.37,4.37,3.35,7.13,3.4a6.64,6.64,0,0,0,3.42-.69,5.43,5.43,0,0,0,2.39-3.46,13.74,13.74,0,0,0,.23-4.29,70.83,70.83,0,0,0-1.14-9.18,2.61,2.61,0,0,0-.49-1.26c-.65-.75-1.85-.52-2.8-.23-2.38.72-8.23,1.32-9.92,3.17C252.64,254.18,254.72,259,254.72,261.48Z" transform="translate(0 0.03)"/><path class="cls-6" d="M267.85,263.48a33,33,0,0,0-3.59,1.35,10.06,10.06,0,0,1-4.84.44c-1.75-.28-3.89-.89-5,.48A3.92,3.92,0,0,0,254,269a35.5,35.5,0,0,0,1.75,6.22,6.14,6.14,0,0,0,1.07,2c1.19,1.33,3.19,1.49,5,1.56a164.81,164.81,0,0,0,19.12,0c1.91-.14,4.26-.72,4.68-2.59a4,4,0,0,0-.79-2.93c-1.9-3-4.9-5-8-6.58C274.14,265.27,271,262.81,267.85,263.48Z" transform="translate(0 0.03)"/><path class="cls-6" d="M260.23,303a28.36,28.36,0,0,0-3.07,1.15,8.64,8.64,0,0,1-4.13.36c-1.49-.24-3.32-.76-4.29.41a3.36,3.36,0,0,0-.34,2.75,31.36,31.36,0,0,0,1.49,5.3,5.2,5.2,0,0,0,.92,1.68c1,1.13,2.72,1.27,4.24,1.33a143.49,143.49,0,0,0,16.33,0c1.63-.12,3.63-.62,4-2.21a3.35,3.35,0,0,0-.67-2.5,16.79,16.79,0,0,0-6.84-5.62C265.6,304.46,262.88,302.37,260.23,303Z" transform="translate(0 0.03)"/><path class="cls-4" d="M164,132.27c-7.38,3.08-12.69,9.72-16.7,16.64-9.69,16.7-13.62,36-17.41,54.94-.78,3.92-1.57,7.9-1.25,11.89a16,16,0,0,0,1.14,4.91c2.46,5.81,9,8.95,15.33,9.33,5.58.35,11.11-1,16.64-1.84,4.65-.66,9.36-.9,13.91-2s9-3.33,11.84-7.07c3.26-4.34,3.84-10.07,4.31-15.47l2.51-29.3c.75-8.78,1.45-18-2-26.08a27.6,27.6,0,0,0-11.71-13C175.64,132.27,169.42,129.94,164,132.27Z" transform="translate(0 0.03)"/><path class="cls-8" d="M194.29,174.2l-.51,5.94q-1,11.69-2,23.36c-.35,4-.75,8.1-2.23,11.73a16.7,16.7,0,0,1-2.08,3.74c-2.81,3.74-7.29,5.93-11.84,7.07s-9.27,1.39-13.91,2c-5.54.79-11.06,2.19-16.64,1.84-6.29-.38-12.88-3.52-15.34-9.33a16.25,16.25,0,0,1-1.13-4.91c-.32-4,.47-8,1.25-11.89,3.79-18.93,7.72-38.24,17.41-54.94,4-6.92,9.32-13.56,16.71-16.64,5.45-2.28,11.66.07,16.62,2.9a27.6,27.6,0,0,1,11.71,13C195.74,156.27,195,165.42,194.29,174.2Z" transform="translate(0 0.03)"/><path class="cls-9" d="M194.09,171.65c-.1,2.83-.21,5.66-.31,8.49q-1,11.69-2,23.36c-.35,4-.75,8.1-2.23,11.73-2.66,2.63-6.74,3.5-10.5,4.18a1.22,1.22,0,0,1-1.64-.57,1.14,1.14,0,0,1-.11-.75c-.78-9.21,2.42-18.27,3-27.5a49.19,49.19,0,0,0-2.75-19.54c-1.25-3.52-8.79-13.74-.27-13.36a11.26,11.26,0,0,1,5,1.86,51.64,51.64,0,0,1,10,7.78,5.86,5.86,0,0,1,1.53,2.12A6.09,6.09,0,0,1,194.09,171.65Z" transform="translate(0 0.03)"/><path class="cls-3" d="M195.42,130.58a3.51,3.51,0,0,1,.15-3.14,4.1,4.1,0,0,1,2.32-1.26c1.37-.39,2.76-.73,4.16-1A5.8,5.8,0,0,1,204,125c1.53.17,2.68,1.43,3.67,2.59a12.11,12.11,0,0,1,2.5,3.85,11.6,11.6,0,0,1,.33,4.23l-.13,3.23a5.48,5.48,0,0,1-.28,1.75,3.57,3.57,0,0,1-1.27,1.53,7.29,7.29,0,0,1-3.47,1.2c-1.41.15-3.58,0-4.5-1.24-.6-.83-.41-2.22-.82-3.19C198.76,136,196.42,133.62,195.42,130.58Z" transform="translate(0 0.03)"/><path class="cls-6" d="M131.81,223.92h-.39l.22-1.36c-1.64,14.13,3.07,31.07,18.16,35.29,13,3.63,25.47,3.72,38-.45C198,254,207.61,247.26,215.5,240c6.81-6.24,12.07-14,19.06-20,1.63,2.56,4,4.32,5.79,6.75,2.23,3,2.48,6.32,3.69,9.7,1.28,3.6,3.56,6.69,5.11,10.16,3.15,7,4.49,10.32,12.53,10.33,2.68,0,3.86.48,5.65-1.53,2.92-3.29,1.81-12.55,1.62-16.48-.69-13.88-2.76-28.45-7.61-41.52-2.68-7.21-6-14.31-11.44-19.82-7.33-7.38-15.59-4.42-23.51.25-9.65,5.7-18.26,14.22-26.28,22.09-3.32,3.25-5.42,6.17-9.4,8.84a149.12,149.12,0,0,1-13.4,7.82C164.05,223.8,146.42,223.92,131.81,223.92Z" transform="translate(0 0.03)"/><path class="cls-4" d="M242.64,293.89a21.78,21.78,0,0,1-.71,4c-2.57,9.35-11.63,15.78-21.07,18s-19.31,1-28.92-.29c-21.47-2.89-142.88-11.26-128.52-153.69,1.72-17.16,12.21-39.85,28.52-43.14a21.22,21.22,0,0,1,9.38.25c34.08,8.43,7.66,69.31,54.44,90.82,13.9,6.39,25.5,17.09,39.77,22.59,25.48,9.85,41,38.18,41,38.18C239.87,278,243.28,286,242.64,293.89Z" transform="translate(0 0.03)"/><path class="cls-3" d="M250.3,158.42c3.1,2.58,4,7,4.08,11a3.79,3.79,0,0,1-.55,2.41,4.1,4.1,0,0,1-1.15.88c-2.31,1.36-5,2.76-7.54,1.93-2.23-.73-3.65-3-5.82-3.89-1.79-.74-4-.53-5.44-1.86a4.54,4.54,0,0,1-1.2-2.25C230,155.85,243.48,152.76,250.3,158.42Z" transform="translate(0 0.03)"/><path class="cls-4" d="M203.56,153a12.75,12.75,0,0,0,3.65,2.26,11.27,11.27,0,0,0,4.44.32c8.63-.68,17.43-3.52,25.77-1.19a6,6,0,0,1,3.16,1.74,5.38,5.38,0,0,1,1,3.4c0,6-4.88,11-10.26,13.75-6.19,3.14-13.2,4.19-20.07,5.2-4.66.68-9.37,1.36-14.07.92a12.2,12.2,0,0,1-6.07-1.85c-40.65-29.38-26.48-33.75-23.72-42.15,1.44-4.39,19.57,4.42,23.79,7.77Z" transform="translate(0 0.03)"/><path class="cls-10" d="M242.64,293.89a21.78,21.78,0,0,1-.71,4c-2.57,9.35-11.63,15.78-21.07,18s-19.31,1-28.92-.29c-21.47-2.89-142.88-11.26-128.52-153.69,1.72-17.16,12.21-39.85,28.52-43.14.77,4.5-3.19,9.89-4.69,14.74a103.31,103.31,0,0,0-2.83,48.59,98.81,98.81,0,0,0,8.78,26.56c5.71,11.41,13.54,21.62,21.66,31.47,6.1,7.4,12.54,14.76,20.76,19.69,7.43,4.46,16,6.72,24.44,8.54A294.6,294.6,0,0,0,194,273.62c15.37,1.47,32.3,2.33,43.51,13A21,21,0,0,1,242.64,293.89Z" transform="translate(0 0.03)"/></svg>