<svg id="Layer_1" data-name="Layer 1" xmlns="http://www.w3.org/2000/svg" viewBox="0 0 512 512"><defs><style>.cls-1{fill:#2e4397;}</style></defs><title>upload</title><path class="cls-1" d="M256,0C114.84,0,0,114.84,0,256S114.84,512,256,512,512,397.16,512,256,397.16,0,256,0ZM356.42,228.42a21.33,21.33,0,0,1-30.17,0L277.33,179.5V384a21.33,21.33,0,1,1-42.66,0V179.5l-48.92,48.92a21.33,21.33,0,0,1-30.17-30.17l85.32-85.31a21.06,21.06,0,0,1,6.95-4.63,21.41,21.41,0,0,1,23.26,4.63l85.31,85.31A21.32,21.32,0,0,1,356.42,228.42Z"/></svg>