<svg id="Layer_1" data-name="Layer 1" xmlns="http://www.w3.org/2000/svg" xmlns:xlink="http://www.w3.org/1999/xlink" viewBox="0 0 423.13 311.65"><defs><style>.cls-1,.cls-3{fill:#b0ff00;}.cls-1{opacity:0.4;isolation:isolate;}.cls-2{fill:#896a49;}.cls-4{fill:url(#linear-gradient);}.cls-5{fill:#404040;}.cls-6{fill:url(#linear-gradient-2);}.cls-7{fill:url(#linear-gradient-3);}.cls-8{fill:url(#linear-gradient-4);}.cls-9{fill:url(#linear-gradient-5);}.cls-10{fill:url(#linear-gradient-6);}.cls-11{fill:url(#linear-gradient-7);}.cls-12{fill:url(#linear-gradient-8);}.cls-13{fill:url(#linear-gradient-9);}.cls-14{fill:url(#linear-gradient-10);}.cls-15{fill:url(#linear-gradient-11);}.cls-16{fill:url(#linear-gradient-12);}.cls-17{fill:url(#linear-gradient-13);}.cls-18{fill:url(#linear-gradient-14);}</style><linearGradient id="linear-gradient" x1="216.42" y1="65.21" x2="434.88" y2="-47.15" gradientTransform="matrix(1, 0, 0, -1, -0.75, 276.39)" gradientUnits="userSpaceOnUse"><stop offset="0" stop-opacity="0"/><stop offset="0.99"/></linearGradient><linearGradient id="linear-gradient-2" x1="128.89" y1="126.56" x2="162.68" y2="156.03" gradientTransform="matrix(1, 0, 0, -1, -0.75, 276.39)" gradientUnits="userSpaceOnUse"><stop offset="0" stop-opacity="0"/><stop offset="0.6" stop-opacity="0.36"/><stop offset="0.99"/></linearGradient><linearGradient id="linear-gradient-3" x1="64.81" y1="111.51" x2="67.72" y2="149.34" xlink:href="#linear-gradient"/><linearGradient id="linear-gradient-4" x1="106.56" y1="135.34" x2="105.36" y2="81.2" xlink:href="#linear-gradient"/><linearGradient id="linear-gradient-5" x1="83.75" y1="53.18" x2="214.76" y2="-14.2" xlink:href="#linear-gradient"/><linearGradient id="linear-gradient-6" x1="192.03" y1="54.32" x2="232.96" y2="112.37" xlink:href="#linear-gradient"/><linearGradient id="linear-gradient-7" x1="105.52" y1="74.88" x2="113.54" y2="112.17" xlink:href="#linear-gradient"/><linearGradient id="linear-gradient-8" x1="275.13" y1="132.16" x2="293.18" y2="131.26" xlink:href="#linear-gradient"/><linearGradient id="linear-gradient-9" x1="-3357.28" y1="131.96" x2="-3339.23" y2="131.06" gradientTransform="translate(-2998.88 276.39) rotate(180)" xlink:href="#linear-gradient"/><linearGradient id="linear-gradient-10" x1="256.48" y1="107.37" x2="228.54" y2="119.81" xlink:href="#linear-gradient"/><linearGradient id="linear-gradient-11" x1="162.84" y1="109.84" x2="178.78" y2="117.86" xlink:href="#linear-gradient"/><linearGradient id="linear-gradient-12" x1="177.54" y1="120.31" x2="170.32" y2="151.59" xlink:href="#linear-gradient-2"/><linearGradient id="linear-gradient-13" x1="259.06" y1="163.76" x2="230.39" y2="131.67" xlink:href="#linear-gradient-2"/><linearGradient id="linear-gradient-14" x1="318.76" y1="66.45" x2="300.34" y2="149.69" xlink:href="#linear-gradient"/></defs><title>user_group</title><path class="cls-1" d="M26.8,268C-8.38,242.48.35,181.63,2.64,162c1.27-10.79,3.92-21.58,9.38-30.82,15.73-26.64,49.23-33.37,74-50.82,27.55-19.31,45.09-52.62,74.74-68.12C177.07,3.74,195.66,1.43,213.87.41,246.93-1.45,283.11,1.68,307.68,25c17.77,16.88,26.63,41.79,42.42,60.72,13.92,16.7,32.72,28.15,47.29,44.23,21.64,23.86,32.7,60.37,21,90.95-10.87,28.33-27.51,46.92-36.14,49.72-27.7,9-88.24,10.09-117.21,12.15-31.05,2.2-59-2.62-90.11-2.52-48,.16-113.49,2.81-148.09-12.35" transform="translate(0 0.04)"/><path class="cls-2" d="M295.84,177.56s4.5,11.33-19.13,18.35-36.6,34.79-36.09,58.15v15.06s73.48,27,135.79,2.08c0,0,6-63.09-36.6-77.89,0,0-8.83-2.6-6.24-13,0,0,20.26-11.43,16.62-41.55S335,99.29,323,98.61C274.72,95.86,274.55,159.21,295.84,177.56Z" transform="translate(0 0.04)"/><path class="cls-3" d="M382.25,270.68s.9-44-6.41-58.94c-6.17-12.63-22.09-15.87-35.53-20a5.35,5.35,0,0,0-2.34-.32,6.23,6.23,0,0,0-2.64,1.42,37.26,37.26,0,0,1-49.42-4.11c-16.12,4.91-28.73,4.81-37.19,19.39s-12.65,43-11.06,59.83C237.62,268,310.25,297.39,382.25,270.68Z" transform="translate(0 0.04)"/><path class="cls-4" d="M254.69,208.53S266.89,196,271.8,196s35,85.29,35,85.29l-44.91-2.14Z" transform="translate(0 0.04)"/><path class="cls-5" d="M281,103.27c2.81-9.34,9.79-18,19.3-20.17,2.84-.65,5.77-.7,8.63-1.25,1.74-.34,3.44-.85,5.16-1.28a40.71,40.71,0,0,1,21.49.2,29.69,29.69,0,0,1,16.95,12.85c3.52,6,4.51,13.16,4,20.08s-4.52,19.18-6.41,25.85c-3.36-4.4-1.12-16.88-5.82-19.82-3.34-2.09-7.64-1.14-11.53-.48a66.1,66.1,0,0,1-27.15-1c-4.21-1.06-8.53-2.54-12.78-1.68-3.69.74-5,3.57-7,6.71-1.42,2.17-2.27,13-3.48,15.11-2.82-1-3.37-18.16-3.34-20.63A52.18,52.18,0,0,1,281,103.27Z" transform="translate(0 0.04)"/><path class="cls-2" d="M352.74,136.67a4.56,4.56,0,0,1,3.37-1.25,3.26,3.26,0,0,1,2.2,1.71,6.58,6.58,0,0,1,.68,2.78,15.08,15.08,0,0,1-3.52,10.61c-1.37,1.6-3.41,3-5.46,2.51a2,2,0,0,1-1.08-.57,2.59,2.59,0,0,1-.48-1,19.43,19.43,0,0,1-.16-9.25c.23-1.33.36-2.63,1.48-3.49C350.7,138.05,351.78,137.39,352.74,136.67Z" transform="translate(0 0.04)"/><path class="cls-5" d="M148.25,182.44c1.58-.26,3.3-.61,4.33-1.83a6.92,6.92,0,0,0,1.23-3.68c1.93-14.51,7.3-57.26-7-81.76-2-3.5-7.16-4.31-9.94-7C130.35,81.77,122,74,110.46,74.09,82.8,74.28,70.21,88,58.88,113.21c-6.88,15.31-9,61.68-3.3,66.17,6,4.73,21.8,4.35,29.24,5.09A244.56,244.56,0,0,0,148.25,182.44Z" transform="translate(0 0.04)"/><path class="cls-6" d="M136.5,111.21a6,6,0,0,1,2-1.73c2.33-1.14,5.15.2,7,2a18.8,18.8,0,0,1,4.7,8.82,44.2,44.2,0,0,1,1,10q.09,6.19-.38,12.38a58.27,58.27,0,0,1-3.76,17.73c-2.33,5.61-6.14,10.74-11.36,13.83-3.88-13.88-4.24-28.46-4.57-42.86-.06-2.29-.11-4.57-.06-6.85,0-.9-.25-2.64.18-3.44s1.2-.64,1.9-1.17c1.11-.83.92-2.37,1.17-3.63A14.27,14.27,0,0,1,136.5,111.21Z" transform="translate(0 0.04)"/><path class="cls-7" d="M63.25,140.79a6.45,6.45,0,0,0-2.83,1.11,6.08,6.08,0,0,0-1.63,2.34,24.08,24.08,0,0,0,1,21.9s4.71-5,5.12-5.57a47.09,47.09,0,0,0,4.3-6.7c1.13-2.15,7.06-12.12,4.07-13.35C71.39,139.75,65.53,140.31,63.25,140.79Z" transform="translate(0 0.04)"/><path class="cls-8" d="M70,177.56c-2.19-5.07-1.75-10.86-1-16.33.67-4.76,1.64-9.66,4.43-13.57a21.42,21.42,0,0,1,10.25-7.37A45.87,45.87,0,0,1,96.25,138a108.85,108.85,0,0,1,18.41.3,38.5,38.5,0,0,1,12.5,3,25.69,25.69,0,0,1,12.16,12.58,31.82,31.82,0,0,1,2.37,17.47,13.56,13.56,0,0,1-2.64,7,14.05,14.05,0,0,1-6.53,3.78c-9,2.88-18.54,2.66-27.86,2.29-7.73-.3-15.54.14-23.15-1.36C77.05,182.23,72.06,182.3,70,177.56Z" transform="translate(0 0.04)"/><path class="cls-2" d="M165.6,271.19c-62.35,24.93-135.79-2.08-135.79-2.08v-15c-.56-23.42,12.44-51.2,36.09-58.2s22-15.19,22-15.19c-21.28-18.34-24-84.85,24.33-82.09,12,.68,23.55,10,27.17,40.16s-20,43.33-20,43.33a7.91,7.91,0,0,0,3,8,18.11,18.11,0,0,0,6.6,3.21C171.55,208.1,165.6,271.19,165.6,271.19Z" transform="translate(0 0.04)"/><path class="cls-5" d="M86,142.61c9.42,0,18.94-1.35,27.57-5.11s16.32-10.11,20.72-18.42a19.5,19.5,0,0,0,2.51-8.52c.11-5.66-3.48-11-8.25-14S118,92.41,112.32,92.17c-12.17-.51-24.74,2.92-34,10.83a37,37,0,0,0-13,26.23C64.87,140.21,77,142.6,86,142.61Z" transform="translate(0 0.04)"/><path class="cls-3" d="M171.39,270.68s-4.75-35.91-12.06-50.88c-6.17-12.63-16.45-23.93-29.89-28.05a5.35,5.35,0,0,0-2.34-.32,6.2,6.2,0,0,0-2.63,1.42,37.26,37.26,0,0,1-49.42-4.11,66.75,66.75,0,0,0-38.13,30.51C28.46,233.82,25.25,251.18,26.8,268,26.8,268,99.38,297.39,171.39,270.68Z" transform="translate(0 0.04)"/><path class="cls-9" d="M119.55,280.18s-27.67,3.07-33.29.26c0,0,14-75.25,47.32-86.08,0,0,14.44,2.4,25.75,25.44C162.62,226.49,119.55,280.18,119.55,280.18Z" transform="translate(0 0.04)"/><path class="cls-3" d="M119.63,296V250.39s10.91-41,48.82-45.7,78.93,1.56,78.93,1.56,40,5.19,47.25,54.52v39S193.89,328.84,119.63,296Z" transform="translate(0 0.04)"/><path class="cls-2" d="M169.83,151.79c-1.62-1-3.61-1.69-5.39-1a5.07,5.07,0,0,0-1.93,1.33c-2.81,3-2.65,7.67-1.76,11.67a44.31,44.31,0,0,0,2,6.59,10.11,10.11,0,0,0,1.49,2.76c2,2.37,5.5,2.69,8.58,2.33,1.82-.21,3.85-.76,4.68-2.4a5.33,5.33,0,0,0,.48-2C178.81,163,176.91,156.07,169.83,151.79Z" transform="translate(0 0.04)"/><path class="cls-2" d="M246.09,155.07c2.27-1.58,5.22-2.8,7.77-1.7a6.41,6.41,0,0,1,3.51,5.32,14.73,14.73,0,0,1-1.14,6.52,21.86,21.86,0,0,1-4.05,7.23,10.86,10.86,0,0,1-7.2,3.76,7.33,7.33,0,0,1-6.95-3.7,12,12,0,0,1-.92-5.13,10,10,0,0,1,.45-4C238.66,160.62,243.76,156.69,246.09,155.07Z" transform="translate(0 0.04)"/><path class="cls-2" d="M183.76,209.1a11.35,11.35,0,0,0-1.52,5,8.87,8.87,0,0,0,.74,3c3.66,9,11.24,13.54,18.55,15.64a24.65,24.65,0,0,0,6.77,1.11c6.9,0,13.72-4.74,17.87-12.39a3.11,3.11,0,0,0,.45-1.29,3.6,3.6,0,0,0-.49-1.69c-2.58-5.56-2.11-12.73-1.43-19.26a3.29,3.29,0,0,0-.1-1.62,1.68,1.68,0,0,0-1-.83c-4.47-1.88-9.27-.71-14-.89-6.5-.24-12.8-3.23-19.31-3.24-2.9,0-3.12,1.08-3.53,4.71A37.67,37.67,0,0,1,183.76,209.1Z" transform="translate(0 0.04)"/><path class="cls-10" d="M183.84,190.39s3.75,14.7,12.84,24.33,30.61,7.79,28.07-.81c-2.14-7.21,1.87-23.52,1.87-23.52Z" transform="translate(0 0.04)"/><path class="cls-2" d="M280.94,136.12a6,6,0,0,0-3.58-2.09,3.68,3.68,0,0,0-2.87,1.38,6.52,6.52,0,0,0-1.33,3,16,16,0,0,0,.61,7.94c1,3.12,2.79,6.28,5.83,7.47a3.4,3.4,0,0,0,3.31-.21,4,4,0,0,0,1.15-2.44C285.25,145.28,285.44,140.5,280.94,136.12Z" transform="translate(0 0.04)"/><path class="cls-2" d="M243.74,162.67c-2.87,24.11-16.27,44-36.35,44S171,187,171,162.67,184,111,204,111,249.61,113.39,243.74,162.67Z" transform="translate(0 0.04)"/><path class="cls-5" d="M165.56,154.72q-2-14.31-2.63-28.78c-.18-4.25-.11-9,2.74-12.13a13.63,13.63,0,0,0,2-2.29,9.06,9.06,0,0,0,.77-3.4c1.08-9.11,7.67-16.72,15.23-21.91a58.45,58.45,0,0,1,27.89-10,32.13,32.13,0,0,1,9.64.41,34.69,34.69,0,0,1,9.1,3.65c4.52,2.45,8.87,5.41,12.08,9.42s5.18,9.22,4.5,14.31a17,17,0,0,1,9.43,10.22,35.48,35.48,0,0,1,1.38,14.59c-1,11.68-5.44,23.67-14.76,30.77A51,51,0,0,0,237.65,136q-2.07-3.75-3.77-7.68a23.56,23.56,0,0,1-1.52-8.79c-3.9,2.08-6.19,6.34-9.87,8.8a21.11,21.11,0,0,1-7.68,2.81,57.93,57.93,0,0,1-26.38-.92c-3.4-.92-7.73-1.88-9.87.92-1.33,1.73-1.1,4.13-1.28,6.31a30.72,30.72,0,0,1-1.71,6.95l-5.3,16C168.47,158.88,165.9,157.07,165.56,154.72Z" transform="translate(0 0.04)"/><path class="cls-11" d="M122.56,190.55c-16.81,10.77-28.52-7.49-29.06-8.4a26.47,26.47,0,0,0,25.84,0,7.91,7.91,0,0,0,3,8Z" transform="translate(0 0.04)"/><path class="cls-12" d="M280.79,147c-.7-.91-1.44-2-1.1-3.12s1.52-1.7,1.53-2.78a2.21,2.21,0,0,0-.85-1.57,3.46,3.46,0,0,0-2.09-.91,1.37,1.37,0,0,0-.77.17,1.57,1.57,0,0,0-.57.77c-1.17,2.62-.78,5.7.25,8.38a4.18,4.18,0,0,0,.79,1.39,4,4,0,0,0,1.74.93c1,.32,2.18.33,2.41-.92C282.3,148.39,281.25,147.59,280.79,147Z" transform="translate(0 0.04)"/><path class="cls-13" d="M352,147.15c.7-.91,1.44-2,1.1-3.12s-1.52-1.7-1.54-2.78a2.19,2.19,0,0,1,.86-1.57,3.46,3.46,0,0,1,2.09-.91,1.35,1.35,0,0,1,.76.17,1.59,1.59,0,0,1,.58.77c1.16,2.62.77,5.7-.26,8.38a3.19,3.19,0,0,1-2.52,2.32c-1,.32-2.18.33-2.42-.92C350.49,148.61,351.5,147.79,352,147.15Z" transform="translate(0 0.04)"/><path class="cls-14" d="M243.8,166.14a4.68,4.68,0,0,0,3.15-.76,3.32,3.32,0,0,0,1.23-1c.82-1.29-.08-3.08.51-4.48A3.79,3.79,0,0,1,251.5,158a1.94,1.94,0,0,1,1.26,0,2.1,2.1,0,0,1,.92,1.88,12.44,12.44,0,0,1-2.84,8.74,11.61,11.61,0,0,1-8.18,4.1.85.85,0,0,1-.47-.07.8.8,0,0,1-.32-.46,5.46,5.46,0,0,1,1-5.37" transform="translate(0 0.04)"/><path class="cls-15" d="M165.41,162c.46.77,1.39,1.07,2.16,1.52a5.31,5.31,0,0,1,2.58,4.45,2.78,2.78,0,0,1-1.7,2.84c-1.11.31-2.22-.48-3-1.33a11.53,11.53,0,0,1-2.92-8.29c.06-1,.49-3.52,2.09-3C165.9,158.65,164.79,161,165.41,162Z" transform="translate(0 0.04)"/><path class="cls-16" d="M169,131.44a9.84,9.84,0,0,0-1.83,5.06,35.37,35.37,0,0,0,.28,7.9L169,158c1.88-6.5,6.32-12.17,7.33-18.86.32-2.13.26-4.35.94-6.41.3-.9,2.08-3.12,1.42-4s-4.45-.18-5.44.1A8.2,8.2,0,0,0,169,131.44Z" transform="translate(0 0.04)"/><path class="cls-17" d="M243.69,108.75a.8.8,0,0,1,.5-.1c.22,0,.35.26.47.46,2.3,3.93,4.64,7.94,5.65,12.39a29.92,29.92,0,0,1,.63,7.49,45.38,45.38,0,0,1-7.55,23.71c-.94-3.11-.84-6.45-1.59-9.62-1-4.3-3.51-8.07-5.7-11.91-2-3.5-5.49-9.41-2.95-13.23A24,24,0,0,1,243.69,108.75Z" transform="translate(0 0.04)"/><path class="cls-18" d="M295.84,177.56s5.69,6.94,18.07,7.31c13.36.4,19.66-4.54,19.66-4.54s-5.89,13-20.6,15.9c-9.31,1.86-19.78-2.14-21.65-7C291.32,189.28,297.42,183.61,295.84,177.56Z" transform="translate(0 0.04)"/><path class="cls-3" d="M184.11,205.32s3.61,17.24,16.44,21.25,23.66-8.82,24.06-17.24,2.41-6,2.41-6l3.21,2V237l-24.46-3.62-24.06,6.82s-6.42-28.88-2.81-36.9" transform="translate(0 0.04)"/></svg>