<svg id="Layer_1" data-name="Layer 1" xmlns="http://www.w3.org/2000/svg" viewBox="0 0 416.01 309.4"><defs><style>.cls-1{fill:#821eb4;}.cls-2{fill:#b450c8;}.cls-3{fill:#dff473;}.cls-4{fill:#8ee26b;}.cls-5{fill:#00a08c;}.cls-6{fill:#65ddb9;}.cls-7{fill:#46b29d;}.cls-8{fill:#14a085;}</style></defs><title>virus2</title><path class="cls-1" d="M313.05,134.83l-24.32,6.51a7.5,7.5,0,0,0,3.88,14.49l24.33-6.51.17.64a7.5,7.5,0,1,0,14.49-3.88l-4.23-15.78a7.5,7.5,0,1,0-14.49,3.88Z" transform="translate(-5.56 -2.63)"/><path class="cls-1" d="M326.3,188.43a7.51,7.51,0,0,0-9.19,5.31l-.17.64-24.33-6.51a7.5,7.5,0,1,0-3.88,14.48l24.32,6.52-.17.65a7.5,7.5,0,1,0,14.49,3.88l4.23-15.78a7.51,7.51,0,0,0-5.3-9.19Z" transform="translate(-5.56 -2.63)"/><path class="cls-2" d="M81.42,155.27A7.5,7.5,0,0,0,90.6,150l.18-.64,24.32,6.51A7.5,7.5,0,1,0,119,141.34l-24.32-6.51.17-.65a7.5,7.5,0,1,0-14.49-3.88l-4.23,15.78a7.52,7.52,0,0,0,5.31,9.19Z" transform="translate(-5.56 -2.63)"/><path class="cls-1" d="M245.41,48.34l-15.79-4.23a7.5,7.5,0,0,0-3.88,14.49l.65.17L219.87,83.1A7.5,7.5,0,0,0,234.36,87l6.52-24.33.65.18a7.5,7.5,0,0,0,3.88-14.49Z" transform="translate(-5.56 -2.63)"/><path class="cls-1" d="M272.71,113.6l17.81-17.81.47.48A7.5,7.5,0,1,0,301.6,85.66L290,74.11a7.5,7.5,0,0,0-10.6,10.6l.47.48L262.11,103a7.5,7.5,0,1,0,10.6,10.6Z" transform="translate(-5.56 -2.63)"/><path class="cls-2" d="M181.32,58.77l.65-.17a7.5,7.5,0,0,0-3.88-14.49L162.3,48.34a7.5,7.5,0,0,0,3.89,14.49l.64-.18L173.35,87a7.5,7.5,0,0,0,14.49-3.88Z" transform="translate(-5.56 -2.63)"/><path class="cls-2" d="M127.8,85.19l.47-.48a7.5,7.5,0,0,0-10.6-10.6L106.11,85.66a7.5,7.5,0,1,0,10.61,10.61l.47-.47L135,113.6A7.5,7.5,0,0,0,145.61,103Z" transform="translate(-5.56 -2.63)"/><path class="cls-2" d="M94.66,208.87,119,202.36a7.5,7.5,0,1,0-3.88-14.49l-24.32,6.52-.18-.65a7.5,7.5,0,1,0-14.49,3.88l4.23,15.78a7.5,7.5,0,1,0,14.49-3.88Z" transform="translate(-5.56 -2.63)"/><path class="cls-1" d="M241.53,280.87l-.65.18-6.52-24.33a7.5,7.5,0,0,0-14.49,3.89l6.52,24.32-.65.17a7.5,7.5,0,0,0,3.88,14.49l15.79-4.23a7.5,7.5,0,0,0-3.88-14.49Z" transform="translate(-5.56 -2.63)"/><path class="cls-1" d="M291,247.43l-.47.48L272.71,230.1a7.5,7.5,0,1,0-10.61,10.61l17.81,17.8-.47.48a7.5,7.5,0,0,0,10.6,10.6L301.6,258A7.5,7.5,0,0,0,291,247.43Z" transform="translate(-5.56 -2.63)"/><path class="cls-2" d="M182.54,251.42a7.51,7.51,0,0,0-9.19,5.3l-6.52,24.33-.65-.18a7.5,7.5,0,0,0-3.88,14.49l15.79,4.23A7.5,7.5,0,0,0,182,285.1l-.65-.17,6.52-24.32a7.5,7.5,0,0,0-5.3-9.19Z" transform="translate(-5.56 -2.63)"/><path class="cls-2" d="M135,230.1l-17.81,17.81-.47-.48A7.5,7.5,0,1,0,106.11,258l11.56,11.55a7.5,7.5,0,0,0,10.6-10.6l-.47-.48,17.81-17.8A7.5,7.5,0,0,0,135,230.1Z" transform="translate(-5.56 -2.63)"/><circle class="cls-3" cx="198.29" cy="169.22" r="97.38"/><path class="cls-4" d="M203.86,269.23V74.47a97.38,97.38,0,0,1,0,194.76Z" transform="translate(-5.56 -2.63)"/><circle class="cls-4" cx="198.29" cy="112.99" r="7.5"/><circle class="cls-4" cx="198.29" cy="225.46" r="7.5"/><circle class="cls-4" cx="182.23" cy="185.29" r="7.5"/><circle class="cls-5" cx="214.36" cy="185.29" r="7.5"/><circle class="cls-5" cx="214.36" cy="153.16" r="7.5"/><circle class="cls-4" cx="182.23" cy="153.16" r="7.5"/><circle class="cls-5" cx="254.53" cy="169.22" r="7.5"/><circle class="cls-4" cx="142.06" cy="169.22" r="7.5"/><circle class="cls-5" cx="238.06" cy="129.46" r="7.5"/><circle class="cls-4" cx="158.53" cy="208.99" r="7.5"/><circle class="cls-5" cx="238.06" cy="208.99" r="7.5"/><circle class="cls-4" cx="158.53" cy="129.46" r="7.5"/><path class="cls-5" d="M211.36,228.08a7.5,7.5,0,0,0-7.5-7.5v15A7.5,7.5,0,0,0,211.36,228.08Z" transform="translate(-5.56 -2.63)"/><path class="cls-5" d="M211.36,115.62a7.5,7.5,0,0,0-7.5-7.5v15A7.5,7.5,0,0,0,211.36,115.62Z" transform="translate(-5.56 -2.63)"/><path class="cls-6" d="M335.41,34.41a1.76,1.76,0,0,1-1.76-1.77V25.58a1.77,1.77,0,1,1,3.53,0v7.06A1.77,1.77,0,0,1,335.41,34.41Z" transform="translate(-5.56 -2.63)"/><path class="cls-6" d="M311.69,44.23a1.75,1.75,0,0,1-1.25-.52l-6.24-6.24a1.76,1.76,0,0,1,0-2.47,1.78,1.78,0,0,1,2.48,0l6.24,6.25a1.74,1.74,0,0,1,.38,1.92A1.75,1.75,0,0,1,311.69,44.23Z" transform="translate(-5.56 -2.63)"/><path class="cls-6" d="M301.87,68H294.8a1.77,1.77,0,0,1,0-3.53h7.07a1.77,1.77,0,0,1,0,3.53Z" transform="translate(-5.56 -2.63)"/><path class="cls-6" d="M305.45,97.91a1.76,1.76,0,0,1-1.25-3l6.24-6.24a1.76,1.76,0,0,1,2.5,2.49L306.7,97.4A1.76,1.76,0,0,1,305.45,97.91Z" transform="translate(-5.56 -2.63)"/><path class="cls-6" d="M335.41,108.56a1.76,1.76,0,0,1-1.76-1.77V99.73a1.77,1.77,0,0,1,3.53,0v7.06A1.77,1.77,0,0,1,335.41,108.56Z" transform="translate(-5.56 -2.63)"/><path class="cls-6" d="M365.37,97.91a1.76,1.76,0,0,1-1.24-.51l-6.25-6.25a1.76,1.76,0,0,1,2.5-2.49l6.24,6.24a1.76,1.76,0,0,1,.39,1.92A1.78,1.78,0,0,1,365.37,97.91Z" transform="translate(-5.56 -2.63)"/><path class="cls-6" d="M377.78,68H369a1.77,1.77,0,1,1,0-3.53h8.82a1.77,1.77,0,1,1,0,3.53Z" transform="translate(-5.56 -2.63)"/><path class="cls-6" d="M359.13,44.23a1.76,1.76,0,0,1-1.25-3L364.13,35a1.76,1.76,0,0,1,3,.78,1.75,1.75,0,0,1-.48,1.72l-6.24,6.24A1.73,1.73,0,0,1,359.13,44.23Z" transform="translate(-5.56 -2.63)"/><path class="cls-7" d="M369,66.19a33.55,33.55,0,1,1-33.55-33.55A33.55,33.55,0,0,1,369,66.19Z" transform="translate(-5.56 -2.63)"/><path class="cls-6" d="M335.41,94.43a1.77,1.77,0,0,1,0-3.53,24.73,24.73,0,0,0,24.72-24.71,1.77,1.77,0,1,1,3.53,0A28.27,28.27,0,0,1,335.41,94.43Z" transform="translate(-5.56 -2.63)"/><path class="cls-8" d="M349.54,53.83a7.07,7.07,0,1,1-7.07-7.06A7.07,7.07,0,0,1,349.54,53.83Z" transform="translate(-5.56 -2.63)"/><path class="cls-8" d="M324.82,59.12a5.3,5.3,0,1,1-5.3-5.29A5.3,5.3,0,0,1,324.82,59.12Z" transform="translate(-5.56 -2.63)"/><path class="cls-8" d="M340.71,75a5.3,5.3,0,1,1-5.3-5.29A5.3,5.3,0,0,1,340.71,75Z" transform="translate(-5.56 -2.63)"/><path class="cls-8" d="M316,76.78a1.71,1.71,0,0,1-.67-.14,2.2,2.2,0,0,1-.58-.37,1.73,1.73,0,0,1-.37-.59,1.71,1.71,0,0,1-.14-.67,1.84,1.84,0,0,1,.51-1.25,2,2,0,0,1,.58-.37,1.79,1.79,0,0,1,1.92.37,1.85,1.85,0,0,1,.52,1.25,1.9,1.9,0,0,1-.52,1.26A1.85,1.85,0,0,1,316,76.78Z" transform="translate(-5.56 -2.63)"/><path class="cls-8" d="M324.82,87.37a1.71,1.71,0,0,1-.67-.14,1.85,1.85,0,0,1-.58-.37,2,2,0,0,1-.38-.58,1.91,1.91,0,0,1-.14-.67,1.86,1.86,0,0,1,.52-1.26,2.05,2.05,0,0,1,.58-.37,1.81,1.81,0,0,1,1.92.37,1.85,1.85,0,0,1,.51,1.26,1.71,1.71,0,0,1-.14.67,1.79,1.79,0,0,1-.37.58A1.82,1.82,0,0,1,324.82,87.37Z" transform="translate(-5.56 -2.63)"/><path class="cls-8" d="M340.71,20.28a5.3,5.3,0,1,1-5.3-5.29A5.3,5.3,0,0,1,340.71,20.28Z" transform="translate(-5.56 -2.63)"/><path class="cls-8" d="M307.52,31.23a7.07,7.07,0,1,1-7.06-7.06A7.06,7.06,0,0,1,307.52,31.23Z" transform="translate(-5.56 -2.63)"/><path class="cls-8" d="M294.8,66.19a4.41,4.41,0,1,1-4.41-4.42A4.41,4.41,0,0,1,294.8,66.19Z" transform="translate(-5.56 -2.63)"/><path class="cls-8" d="M307.52,101.14a7.07,7.07,0,1,1-7.06-7.06A7.06,7.06,0,0,1,307.52,101.14Z" transform="translate(-5.56 -2.63)"/><path class="cls-8" d="M340.71,112.09a5.3,5.3,0,1,1-5.3-5.3A5.3,5.3,0,0,1,340.71,112.09Z" transform="translate(-5.56 -2.63)"/><path class="cls-8" d="M377.43,101.14a7.06,7.06,0,1,1-7.06-7.06A7.06,7.06,0,0,1,377.43,101.14Z" transform="translate(-5.56 -2.63)"/><path class="cls-8" d="M388.38,66.19a5.3,5.3,0,1,1-5.3-5.3A5.29,5.29,0,0,1,388.38,66.19Z" transform="translate(-5.56 -2.63)"/><path class="cls-8" d="M377.43,31.23a7.06,7.06,0,1,1-7.06-7.06A7.06,7.06,0,0,1,377.43,31.23Z" transform="translate(-5.56 -2.63)"/><path class="cls-6" d="M55,22.05a1.77,1.77,0,0,1-1.77-1.77V13.22a1.77,1.77,0,1,1,3.53,0v7.06A1.76,1.76,0,0,1,55,22.05Z" transform="translate(-5.56 -2.63)"/><path class="cls-6" d="M31.28,31.87A1.76,1.76,0,0,1,30,31.36l-6.25-6.25a1.76,1.76,0,0,1,2.5-2.49l6.24,6.24a1.76,1.76,0,0,1,.39,1.92A1.77,1.77,0,0,1,31.28,31.87Z" transform="translate(-5.56 -2.63)"/><path class="cls-6" d="M21.45,55.59H14.39a1.77,1.77,0,1,1,0-3.53h7.06a1.77,1.77,0,1,1,0,3.53Z" transform="translate(-5.56 -2.63)"/><path class="cls-6" d="M25,85.56a1.77,1.77,0,0,1-1.25-3L30,76.3a1.76,1.76,0,0,1,2.49,2.5L26.28,85A1.77,1.77,0,0,1,25,85.56Z" transform="translate(-5.56 -2.63)"/><path class="cls-6" d="M55,96.2a1.77,1.77,0,0,1-1.77-1.77V87.37a1.77,1.77,0,0,1,3.53,0v7.06A1.76,1.76,0,0,1,55,96.2Z" transform="translate(-5.56 -2.63)"/><path class="cls-6" d="M85,85.56A1.77,1.77,0,0,1,83.71,85L77.47,78.8A1.76,1.76,0,0,1,80,76.3l6.25,6.24a1.77,1.77,0,0,1-1.25,3Z" transform="translate(-5.56 -2.63)"/><path class="cls-6" d="M97.37,55.59H88.54a1.77,1.77,0,1,1,0-3.53h8.83a1.77,1.77,0,0,1,0,3.53Z" transform="translate(-5.56 -2.63)"/><path class="cls-6" d="M78.71,31.87a1.77,1.77,0,0,1-1.63-1.09,1.76,1.76,0,0,1,.39-1.92l6.24-6.24a1.75,1.75,0,0,1,1.72-.48,1.76,1.76,0,0,1,.78,3L80,31.36A1.76,1.76,0,0,1,78.71,31.87Z" transform="translate(-5.56 -2.63)"/><path class="cls-7" d="M88.54,53.83A33.55,33.55,0,1,1,55,20.28,33.54,33.54,0,0,1,88.54,53.83Z" transform="translate(-5.56 -2.63)"/><path class="cls-6" d="M55,82.08a1.77,1.77,0,0,1,0-3.54A24.73,24.73,0,0,0,79.71,53.83a1.77,1.77,0,1,1,3.53,0A28.28,28.28,0,0,1,55,82.08Z" transform="translate(-5.56 -2.63)"/><path class="cls-8" d="M69.12,41.47a7.06,7.06,0,1,1-7.06-7.06A7.06,7.06,0,0,1,69.12,41.47Z" transform="translate(-5.56 -2.63)"/><path class="cls-8" d="M44.4,46.77a5.3,5.3,0,1,1-5.29-5.3A5.29,5.29,0,0,1,44.4,46.77Z" transform="translate(-5.56 -2.63)"/><path class="cls-8" d="M60.29,62.65A5.3,5.3,0,1,1,55,57.36,5.29,5.29,0,0,1,60.29,62.65Z" transform="translate(-5.56 -2.63)"/><path class="cls-8" d="M35.57,64.42a1.75,1.75,0,0,1-.67-.14,2.2,2.2,0,0,1-.58-.37,2,2,0,0,1-.37-.58,1.76,1.76,0,0,1-.14-.68,1.89,1.89,0,0,1,.51-1.25A2.2,2.2,0,0,1,34.9,61a1.81,1.81,0,0,1,1.93.37,1.89,1.89,0,0,1,.51,1.25,1.76,1.76,0,0,1-.14.68,2,2,0,0,1-.37.58A1.9,1.9,0,0,1,35.57,64.42Z" transform="translate(-5.56 -2.63)"/><path class="cls-8" d="M44.4,75a1.71,1.71,0,0,1-.67-.14,2,2,0,0,1-.58-.37,1.69,1.69,0,0,1-.37-.58,1.71,1.71,0,0,1-.14-.67A1.85,1.85,0,0,1,43.15,72a2.2,2.2,0,0,1,.58-.37,1.83,1.83,0,0,1,1.93.37A1.76,1.76,0,0,1,46,73.92,1.69,1.69,0,0,1,44.4,75Z" transform="translate(-5.56 -2.63)"/><path class="cls-8" d="M60.29,7.92A5.3,5.3,0,1,1,55,2.63,5.29,5.29,0,0,1,60.29,7.92Z" transform="translate(-5.56 -2.63)"/><path class="cls-8" d="M27.1,18.87A7.06,7.06,0,1,1,20,11.81,7.06,7.06,0,0,1,27.1,18.87Z" transform="translate(-5.56 -2.63)"/><path class="cls-8" d="M14.39,53.83A4.42,4.42,0,1,1,10,49.41,4.42,4.42,0,0,1,14.39,53.83Z" transform="translate(-5.56 -2.63)"/><path class="cls-8" d="M27.1,88.78A7.06,7.06,0,1,1,20,81.72,7.06,7.06,0,0,1,27.1,88.78Z" transform="translate(-5.56 -2.63)"/><path class="cls-8" d="M60.29,99.73A5.3,5.3,0,1,1,55,94.43,5.29,5.29,0,0,1,60.29,99.73Z" transform="translate(-5.56 -2.63)"/><path class="cls-8" d="M97,88.78A7.06,7.06,0,1,1,90,81.72,7.06,7.06,0,0,1,97,88.78Z" transform="translate(-5.56 -2.63)"/><path class="cls-8" d="M108,53.83a5.3,5.3,0,1,1-5.3-5.3A5.29,5.29,0,0,1,108,53.83Z" transform="translate(-5.56 -2.63)"/><path class="cls-8" d="M97,18.87A7.06,7.06,0,1,1,90,11.81,7.06,7.06,0,0,1,97,18.87Z" transform="translate(-5.56 -2.63)"/><path class="cls-6" d="M368.6,229.05a1.76,1.76,0,0,1-1.76-1.77v-7.06a1.77,1.77,0,0,1,3.53,0v7.06A1.77,1.77,0,0,1,368.6,229.05Z" transform="translate(-5.56 -2.63)"/><path class="cls-6" d="M344.88,238.87a1.78,1.78,0,0,1-1.25-.51l-6.24-6.25a1.76,1.76,0,0,1,2.5-2.49l6.24,6.24a1.74,1.74,0,0,1,.38,1.92A1.75,1.75,0,0,1,344.88,238.87Z" transform="translate(-5.56 -2.63)"/><path class="cls-6" d="M335.06,262.59H328a1.77,1.77,0,1,1,0-3.53h7.06a1.77,1.77,0,0,1,0,3.53Z" transform="translate(-5.56 -2.63)"/><path class="cls-6" d="M338.64,292.56a1.76,1.76,0,0,1-1.63-1.09,1.79,1.79,0,0,1,.38-1.93l6.24-6.24a1.77,1.77,0,0,1,2.5,2.5L339.89,292A1.77,1.77,0,0,1,338.64,292.56Z" transform="translate(-5.56 -2.63)"/><path class="cls-6" d="M368.6,303.2a1.76,1.76,0,0,1-1.76-1.77v-7.06a1.77,1.77,0,0,1,3.53,0v7.06A1.77,1.77,0,0,1,368.6,303.2Z" transform="translate(-5.56 -2.63)"/><path class="cls-6" d="M398.56,292.56a1.77,1.77,0,0,1-1.24-.52l-6.25-6.24a1.77,1.77,0,0,1,2.5-2.5l6.24,6.24a1.76,1.76,0,0,1-1.25,3Z" transform="translate(-5.56 -2.63)"/><path class="cls-6" d="M411,262.59h-8.82a1.77,1.77,0,1,1,0-3.53H411a1.77,1.77,0,1,1,0,3.53Z" transform="translate(-5.56 -2.63)"/><path class="cls-6" d="M392.32,238.87a1.76,1.76,0,0,1-1.25-3l6.25-6.24a1.76,1.76,0,1,1,2.49,2.49l-6.24,6.25A1.76,1.76,0,0,1,392.32,238.87Z" transform="translate(-5.56 -2.63)"/><path class="cls-7" d="M402.15,260.83a33.55,33.55,0,1,1-33.55-33.55A33.55,33.55,0,0,1,402.15,260.83Z" transform="translate(-5.56 -2.63)"/><path class="cls-6" d="M368.6,289.08a1.77,1.77,0,0,1,0-3.54,24.73,24.73,0,0,0,24.72-24.71,1.77,1.77,0,1,1,3.53,0A28.28,28.28,0,0,1,368.6,289.08Z" transform="translate(-5.56 -2.63)"/><path class="cls-8" d="M382.73,248.47a7.07,7.07,0,1,1-7.07-7.06A7.07,7.07,0,0,1,382.73,248.47Z" transform="translate(-5.56 -2.63)"/><path class="cls-8" d="M358,253.77a5.3,5.3,0,1,1-5.3-5.3A5.29,5.29,0,0,1,358,253.77Z" transform="translate(-5.56 -2.63)"/><path class="cls-8" d="M373.9,269.66a5.3,5.3,0,1,1-5.3-5.3A5.29,5.29,0,0,1,373.9,269.66Z" transform="translate(-5.56 -2.63)"/><path class="cls-8" d="M349.18,271.42a1.71,1.71,0,0,1-.67-.14,2.2,2.2,0,0,1-.58-.37,1.79,1.79,0,0,1-.37-.58,1.75,1.75,0,0,1-.14-.67,1.85,1.85,0,0,1,.51-1.26,2.2,2.2,0,0,1,.58-.37,1.81,1.81,0,0,1,1.93.37,1.9,1.9,0,0,1,.51,1.26,2,2,0,0,1-.14.67,2.2,2.2,0,0,1-.37.58A1.9,1.9,0,0,1,349.18,271.42Z" transform="translate(-5.56 -2.63)"/><path class="cls-8" d="M358,282a1.71,1.71,0,0,1-.67-.14,1.85,1.85,0,0,1-.58-.37,1.69,1.69,0,0,1-.37-.58,1.72,1.72,0,0,1-.15-.67,1.86,1.86,0,0,1,.52-1.26,2.05,2.05,0,0,1,.58-.37,1.74,1.74,0,0,1,2.43,1.63,1.71,1.71,0,0,1-.14.67,1.69,1.69,0,0,1-.37.58A1.82,1.82,0,0,1,358,282Z" transform="translate(-5.56 -2.63)"/><path class="cls-8" d="M373.9,214.92a5.3,5.3,0,1,1-5.3-5.29A5.3,5.3,0,0,1,373.9,214.92Z" transform="translate(-5.56 -2.63)"/><path class="cls-8" d="M340.71,225.87a7.06,7.06,0,1,1-7.06-7.06A7.06,7.06,0,0,1,340.71,225.87Z" transform="translate(-5.56 -2.63)"/><path class="cls-8" d="M328,260.83a4.42,4.42,0,1,1-4.42-4.42A4.41,4.41,0,0,1,328,260.83Z" transform="translate(-5.56 -2.63)"/><path class="cls-8" d="M340.71,295.78a7.06,7.06,0,1,1-7.06-7.06A7.06,7.06,0,0,1,340.71,295.78Z" transform="translate(-5.56 -2.63)"/><path class="cls-8" d="M373.9,306.73a5.3,5.3,0,1,1-5.3-5.3A5.3,5.3,0,0,1,373.9,306.73Z" transform="translate(-5.56 -2.63)"/><path class="cls-8" d="M410.62,295.78a7.06,7.06,0,1,1-7.06-7.06A7.06,7.06,0,0,1,410.62,295.78Z" transform="translate(-5.56 -2.63)"/><path class="cls-8" d="M421.57,260.83a5.3,5.3,0,1,1-5.3-5.3A5.29,5.29,0,0,1,421.57,260.83Z" transform="translate(-5.56 -2.63)"/><path class="cls-8" d="M410.62,225.87a7.06,7.06,0,1,1-7.06-7.06A7.06,7.06,0,0,1,410.62,225.87Z" transform="translate(-5.56 -2.63)"/><path class="cls-1" d="M75.07,248.71,70.2,250a1.5,1.5,0,1,0,.78,2.9l4.87-1.3,0,.13a1.5,1.5,0,0,0,2.9-.78l-.85-3.16a1.5,1.5,0,1,0-2.9.78Z" transform="translate(-5.56 -2.63)"/><path class="cls-1" d="M77.72,259.43a1.5,1.5,0,0,0-1.84,1.06l0,.13L71,259.32a1.5,1.5,0,1,0-.78,2.9l4.87,1.3,0,.13a1.5,1.5,0,0,0,2.9.78l.85-3.16a1.51,1.51,0,0,0-1.06-1.84Z" transform="translate(-5.56 -2.63)"/><path class="cls-2" d="M28.74,252.8a1.51,1.51,0,0,0,1.84-1.06l0-.13,4.87,1.3a1.5,1.5,0,1,0,.77-2.9l-4.86-1.3,0-.13a1.5,1.5,0,1,0-2.89-.78L27.68,251a1.51,1.51,0,0,0,1.06,1.84Z" transform="translate(-5.56 -2.63)"/><path class="cls-1" d="M61.54,231.41l-3.16-.84a1.5,1.5,0,0,0-.77,2.89l.13,0-1.31,4.86a1.5,1.5,0,1,0,2.9.78l1.3-4.87.13,0a1.5,1.5,0,0,0,.78-2.9Z" transform="translate(-5.56 -2.63)"/><path class="cls-1" d="M67,244.46l3.56-3.56.1.1a1.5,1.5,0,0,0,2.12-2.12l-2.31-2.31a1.5,1.5,0,0,0-2.12,2.12l.09.09-3.56,3.56A1.5,1.5,0,0,0,67,244.46Z" transform="translate(-5.56 -2.63)"/><path class="cls-2" d="M48.72,233.5l.13,0a1.5,1.5,0,0,0-.77-2.89l-3.16.84a1.5,1.5,0,1,0,.78,2.9l.13,0,1.3,4.87a1.5,1.5,0,1,0,2.9-.78Z" transform="translate(-5.56 -2.63)"/><path class="cls-2" d="M38,238.78l.09-.09A1.5,1.5,0,0,0,36,236.57l-2.31,2.31A1.5,1.5,0,1,0,35.8,241l.1-.1,3.56,3.56a1.5,1.5,0,0,0,2.12-2.12Z" transform="translate(-5.56 -2.63)"/><path class="cls-2" d="M31.39,263.52l4.86-1.3a1.5,1.5,0,1,0-.77-2.9l-4.87,1.3,0-.13a1.5,1.5,0,1,0-2.9.78l.85,3.16a1.5,1.5,0,1,0,2.89-.78Z" transform="translate(-5.56 -2.63)"/><path class="cls-1" d="M60.76,277.92l-.13,0-1.3-4.86a1.5,1.5,0,0,0-2.9.78l1.31,4.86-.13,0a1.5,1.5,0,1,0,.77,2.89l3.16-.84a1.5,1.5,0,0,0-.78-2.9Z" transform="translate(-5.56 -2.63)"/><path class="cls-1" d="M70.66,271.23l-.1.1L67,267.76a1.5,1.5,0,0,0-2.12,2.13l3.56,3.56-.09.09a1.5,1.5,0,0,0,2.12,2.12l2.31-2.31a1.5,1.5,0,0,0-2.12-2.12Z" transform="translate(-5.56 -2.63)"/><path class="cls-2" d="M49,272a1.5,1.5,0,0,0-1.84,1.06L45.82,278l-.12,0a1.5,1.5,0,1,0-.78,2.9l3.16.84a1.5,1.5,0,1,0,.77-2.89l-.13,0L50,273.87A1.5,1.5,0,0,0,49,272Z" transform="translate(-5.56 -2.63)"/><path class="cls-2" d="M39.46,267.76l-3.56,3.57-.1-.1a1.5,1.5,0,1,0-2.12,2.12L36,275.66a1.5,1.5,0,0,0,2.12-2.12l-.09-.09,3.56-3.56a1.5,1.5,0,0,0-2.12-2.13Z" transform="translate(-5.56 -2.63)"/><circle class="cls-3" cx="47.67" cy="253.49" r="19.48"/><path class="cls-4" d="M53.23,275.59V236.64a19.48,19.48,0,1,1,0,38.95Z" transform="translate(-5.56 -2.63)"/><circle class="cls-4" cx="47.67" cy="242.24" r="1.5"/><circle class="cls-4" cx="47.67" cy="264.73" r="1.5"/><circle class="cls-4" cx="44.46" cy="256.7" r="1.5"/><circle class="cls-5" cx="50.88" cy="256.7" r="1.5"/><circle class="cls-5" cx="50.88" cy="250.27" r="1.5"/><circle class="cls-4" cx="44.46" cy="250.27" r="1.5"/><circle class="cls-5" cx="58.92" cy="253.49" r="1.5"/><circle class="cls-4" cx="36.42" cy="253.49" r="1.5"/><circle class="cls-5" cx="55.62" cy="245.53" r="1.5"/><circle class="cls-4" cx="39.72" cy="261.44" r="1.5"/><circle class="cls-5" cx="55.62" cy="261.44" r="1.5"/><circle class="cls-4" cx="39.72" cy="245.53" r="1.5"/><path class="cls-5" d="M54.73,267.36a1.5,1.5,0,0,0-1.5-1.5v3A1.5,1.5,0,0,0,54.73,267.36Z" transform="translate(-5.56 -2.63)"/><path class="cls-5" d="M54.73,244.87a1.5,1.5,0,0,0-1.5-1.5v3A1.5,1.5,0,0,0,54.73,244.87Z" transform="translate(-5.56 -2.63)"/></svg>