<svg id="Layer_1" data-name="Layer 1" xmlns="http://www.w3.org/2000/svg" xmlns:xlink="http://www.w3.org/1999/xlink" viewBox="0 0 386.81 298.57"><defs><style>.cls-1,.cls-2{fill:#b0ff00;}.cls-1{opacity:0.18;isolation:isolate;}.cls-3{fill:#b25424;}.cls-4{fill:#863f1b;}.cls-5{fill:url(#linear-gradient);}.cls-6{fill:url(#linear-gradient-2);}.cls-7{fill:url(#linear-gradient-3);}.cls-8{fill:url(#linear-gradient-4);}.cls-9{fill:url(#linear-gradient-5);}.cls-10{fill:url(#linear-gradient-6);}.cls-11{fill:url(#linear-gradient-7);}.cls-12{fill:url(#linear-gradient-8);}.cls-13{fill:url(#linear-gradient-9);}.cls-14{fill:url(#linear-gradient-10);}.cls-15{fill:url(#linear-gradient-11);}.cls-16{fill:url(#linear-gradient-12);}.cls-17{fill:url(#linear-gradient-13);}.cls-18{fill:url(#linear-gradient-14);}.cls-19{fill:none;stroke:#f8feff;stroke-linecap:round;stroke-linejoin:round;stroke-width:1.88px;}.cls-20{fill:url(#linear-gradient-15);}.cls-21{fill:url(#linear-gradient-16);}.cls-22{fill:url(#linear-gradient-17);}.cls-23{fill:url(#linear-gradient-18);}.cls-24{fill:url(#linear-gradient-19);}.cls-25{fill:url(#linear-gradient-20);}.cls-26{fill:url(#linear-gradient-21);}</style><linearGradient id="linear-gradient" x1="161.58" y1="154.62" x2="166.63" y2="154.62" gradientTransform="matrix(1, 0, 0, -1, -37.33, 288.25)" gradientUnits="userSpaceOnUse"><stop offset="0.01" stop-color="#fff"/><stop offset="0.13" stop-color="#fff" stop-opacity="0.69"/><stop offset="1" stop-color="#fff" stop-opacity="0"/></linearGradient><linearGradient id="linear-gradient-2" x1="172.79" y1="154.07" x2="179.96" y2="154.07" xlink:href="#linear-gradient"/><linearGradient id="linear-gradient-3" x1="153.77" y1="133.09" x2="161.11" y2="133.09" xlink:href="#linear-gradient"/><linearGradient id="linear-gradient-4" x1="105.13" y1="131.32" x2="108.35" y2="131.32" gradientTransform="matrix(1, 0, 0, -1, 0.01, 300.02)" xlink:href="#linear-gradient"/><linearGradient id="linear-gradient-5" x1="118.07" y1="147.63" x2="121.29" y2="147.63" gradientTransform="matrix(1, 0, 0, -1, 0.01, 300.02)" xlink:href="#linear-gradient"/><linearGradient id="linear-gradient-6" x1="115.91" y1="153.06" x2="119.13" y2="153.06" gradientTransform="matrix(1, 0, 0, -1, 0.01, 300.02)" xlink:href="#linear-gradient"/><linearGradient id="linear-gradient-7" x1="121.64" y1="159.85" x2="123.76" y2="159.85" gradientTransform="matrix(1, 0, 0, -1, 0.01, 300.02)" xlink:href="#linear-gradient"/><linearGradient id="linear-gradient-8" x1="116.5" y1="160.91" x2="118.62" y2="160.91" gradientTransform="matrix(1, 0, 0, -1, 0.01, 300.02)" xlink:href="#linear-gradient"/><linearGradient id="linear-gradient-9" x1="123.25" y1="141.87" x2="125.37" y2="141.87" gradientTransform="matrix(1, 0, 0, -1, 0.01, 300.02)" xlink:href="#linear-gradient"/><linearGradient id="linear-gradient-10" x1="117.56" y1="133.99" x2="119.68" y2="133.99" gradientTransform="matrix(1, 0, 0, -1, 0.01, 300.02)" xlink:href="#linear-gradient"/><linearGradient id="linear-gradient-11" x1="1129.75" y1="90.88" x2="1132.96" y2="90.88" gradientTransform="matrix(-1, 0.01, 0.01, 1, 1270.37, 34.88)" xlink:href="#linear-gradient"/><linearGradient id="linear-gradient-12" x1="1119.64" y1="88.43" x2="1122.86" y2="88.43" gradientTransform="matrix(-1, 0.01, 0.01, 1, 1270.37, 34.88)" xlink:href="#linear-gradient"/><linearGradient id="linear-gradient-13" x1="1115.5" y1="101.71" x2="1118.72" y2="101.71" gradientTransform="matrix(-1, 0.01, 0.01, 1, 1270.37, 34.88)" xlink:href="#linear-gradient"/><linearGradient id="linear-gradient-14" x1="1139.88" y1="84.7" x2="1142" y2="84.7" gradientTransform="matrix(-1, 0.01, 0.01, 1, 1270.37, 34.88)" xlink:href="#linear-gradient"/><linearGradient id="linear-gradient-15" x1="308.47" y1="135.56" x2="343.59" y2="135.56" xlink:href="#linear-gradient"/><linearGradient id="linear-gradient-16" x1="288.73" y1="163.19" x2="290.24" y2="163.19" gradientTransform="matrix(1, 0, 0, -1, 0.01, 300.02)" xlink:href="#linear-gradient"/><linearGradient id="linear-gradient-17" x1="275.73" y1="154.3" x2="277.24" y2="154.3" gradientTransform="matrix(1, 0, 0, -1, 0.01, 300.02)" xlink:href="#linear-gradient"/><linearGradient id="linear-gradient-18" x1="285.78" y1="161.79" x2="287.29" y2="161.79" gradientTransform="matrix(1, 0, 0, -1, 0.01, 300.02)" xlink:href="#linear-gradient"/><linearGradient id="linear-gradient-19" x1="282.47" y1="162.11" x2="283.97" y2="162.11" gradientTransform="matrix(1, 0, 0, -1, 0.01, 300.02)" xlink:href="#linear-gradient"/><linearGradient id="linear-gradient-20" x1="274.33" y1="148.6" x2="276.46" y2="148.6" gradientTransform="matrix(1, 0, 0, -1, 0.01, 300.02)" xlink:href="#linear-gradient"/><linearGradient id="linear-gradient-21" x1="2155.34" y1="-117.58" x2="2157.46" y2="-117.58" gradientTransform="matrix(-0.53, 0.85, 0.85, 0.53, 1514.68, -1628.6)" xlink:href="#linear-gradient"/></defs><title>washing_hands_</title><path class="cls-1" d="M382.81,213.25c.89,6.71,3,13.23,3.72,19.95,2.24,20.79-9.56,41.67-27,53.15s-39.7,14.3-60.3,10.78c-16-2.74-31.17-9-46.89-13.09a174.76,174.76,0,0,0-79.41-1.79c-18.69,3.93-37.24,11.06-56.51,11.4-15.65.29-24.68-6.54-38.47-11.95-31-12.15-58.41-24.7-71.84-58-9.82-24.31-7.51-52.6,4.74-75.61,6.68-12.57,13.3-18.68,24.8-24.79C47.84,116.82,56.12,109.37,61,95.88c5.3-14.53,6.15-30.41,11.79-44.81,13-33.3,50.89-52.62,86.61-51s68.75,21,94.24,46.09c5.31,5.23,10.52,10.83,17.24,14,6.12,2.93,13,3.65,19.73,4.56,28.29,3.83,57.81,12.94,75.92,35s21.29,52.86,18.07,81.16c-1.19,10.49-3.16,21.06-1.92,31.54Z" transform="translate(0.01 0.02)"/><path class="cls-2" d="M195.85,157.37a71,71,0,0,1-20,49.45c-.38.4-.76.79-1.15,1.17a71.25,71.25,0,0,1-22.4,15h0a68.72,68.72,0,0,1-9.15,3.17,71.37,71.37,0,0,1-18.62,2.46,73,73,0,0,1-12.69-1.12,71.32,71.32,0,0,1-31.16-14,64.53,64.53,0,0,1-5-4.32,71.27,71.27,0,1,1,120.15-51.87Z" transform="translate(0.01 0.02)"/><path class="cls-2" d="M365.31,157.37a71.19,71.19,0,0,1-20,49.45c-.38.4-.76.79-1.15,1.17a71.21,71.21,0,0,1-22.39,15h0a68.72,68.72,0,0,1-9.15,3.17A71.37,71.37,0,0,1,294,228.62a73,73,0,0,1-12.69-1.12,71.32,71.32,0,0,1-31.16-14,64.53,64.53,0,0,1-5-4.32,71.24,71.24,0,1,1,120.16-51.85Z" transform="translate(0.01 0.02)"/><path class="cls-3" d="M158.39,116.38a6.4,6.4,0,0,1,2.46-1.12,2.44,2.44,0,0,1,2.41.91c.81,1.25-.14,2.86-1,4a89.56,89.56,0,0,1-9.16,10.58,30.07,30.07,0,0,0-4.38,4.5c-.34-2.17-1.78-4.18-2.11-6.35-.27-1.79,1.38-3.16,2.55-4.5A44.71,44.71,0,0,1,158.39,116.38Z" transform="translate(0.01 0.02)"/><path class="cls-3" d="M122,184.83a14.48,14.48,0,0,1-.51,3.7c-1.08,4-3.78,7.28-6.07,10.72a77.4,77.4,0,0,0-8.08,16.62c-1.13,3.13-1.85,6.59-2.83,9.91a71.15,71.15,0,0,1-23.81-12.22,64.53,64.53,0,0,1-5-4.32A105,105,0,0,0,82.62,199c2.38-4.06,4.4-8.32,7-12.25,5.21-7.92,12.75-14.66,15.9-23.46a24.28,24.28,0,0,0,.72-2.34c4.32,3.52,8.71,7.11,11.85,11.71A21.32,21.32,0,0,1,122,184.83Z" transform="translate(0.01 0.02)"/><path class="cls-4" d="M175.9,206.82c-.38.4-.76.79-1.15,1.17a71.25,71.25,0,0,1-22.4,15h0c-3.59-2.51-5.9-6.58-8-10.47-2.27-4.14-6-8.36-7.14-13a12.54,12.54,0,0,0-1.35-3.28c-3.1-5.16-9.42-7.34-13.8-11.48l-.3-.28c-4.29-4.22-6.29-10.25-10-15a50.47,50.47,0,0,0-6.24-6.25c-1.59-1.4-3.18-2.82-4.64-4.36a36.49,36.49,0,0,1-5.8-8.15c-.48-.92-.86-2.23,0-2.89a2.25,2.25,0,0,1,1.28-.4,20.18,20.18,0,0,1,12.88,3.93l.39.28a35,35,0,0,1,6.16,5.75c1.26,1.45,2.44,3,3.57,4.53V160h0c-.11-3.2-.54-6.71-.63-9.75a23.71,23.71,0,0,0-1-7.1c-1.05-3-3.14-5.59-5-8.2l-.59-.82c-4.47-6.34-7.35-14.45-5.19-21.91,2-.57,3.41,1.75,4.17,3.62a72.86,72.86,0,0,0,6.45,12.39,71.45,71.45,0,0,0,9.22,11.3l.46.46a9.34,9.34,0,0,0,.34-5,34.21,34.21,0,0,0-2.15-6.48,97.1,97.1,0,0,1-3.62-10.63c-.46-1.62-.86-3.26-1.23-4.91-.48-2.16-.88-4.49-.05-6.54s3.31-3.58,5.29-2.58a4.37,4.37,0,0,1,2,2.38h0a15.49,15.49,0,0,1,.6,1.86c1,3.83,2.11,7.67,3.24,11.48.37,1.22.74,2.44,1.12,3.66,1.12,3.69,2.3,7.35,3.59,11,.68,2,1.39,4,2.14,5.94a34.19,34.19,0,0,0-.89-8c-.93-4.31-2.34-8.56-3.12-12.92a31.87,31.87,0,0,1-.51-3.64,1.88,1.88,0,0,1,.52-1.77,1.51,1.51,0,0,1,1-.17,5.67,5.67,0,0,1,2.37.74,12.52,12.52,0,0,1,3.88,3.82,36.1,36.1,0,0,1,2.23,3.61,40,40,0,0,1,4.11,10.5.8.8,0,0,1,.17-.15c.82-.54,1.73,0,2.4.87a5.32,5.32,0,0,1,.68,1.12,57.7,57.7,0,0,1,3,8.67c.76,2.82,1.34,5.7,1.84,8.61,2.48,14.51,2.78,29.72,10.47,42.11C169.18,197.78,173,202.25,175.9,206.82Z" transform="translate(0.01 0.02)"/><path class="cls-3" d="M109.17,145.77c-1.31-4.51-6.86-7.19-7.15-11.88a1.13,1.13,0,0,1,.11-.65,1,1,0,0,1,.57-.37c2.34-.84,4.92,0,7.23.95,2.66,1.07,5.38,2.32,7.2,4.54a14.5,14.5,0,0,1,2.64,6.15,32.19,32.19,0,0,1-.91,16.86c.21-.61-2.59-3.3-3-3.77a30.86,30.86,0,0,0-3.84-3.38c-1.17-.86-2.66-1.29-2.82-2.74C108.94,149.55,109.76,147.78,109.17,145.77Z" transform="translate(0.01 0.02)"/><path class="cls-3" d="M125.48,110.25c1.71-3.5,3.81-7.28,7.49-8.57a1.65,1.65,0,0,1,.73-.11,1.33,1.33,0,0,1,.67.36,5,5,0,0,1,1.49,3.76,14.93,14.93,0,0,1-.76,4.08A57.56,57.56,0,0,1,132,118.7c-1.29,2.69-3,5.21-3.76,8.09-1.13,4.29,0,9-1.63,13.14,0-.13-5.41-5.37-5.91-6-1.5-1.84-3.86-4.05-3-6.55C119.75,121.56,122.77,115.82,125.48,110.25Z" transform="translate(0.01 0.02)"/><path class="cls-3" d="M137.53,132.1c-.43.68-.88,1.38-1.25,2.06q-1.92-5.43-3.59-11a9,9,0,0,1,1.73-4C135.19,123.54,136.61,127.79,137.53,132.1Z" transform="translate(0.01 0.02)"/><path class="cls-3" d="M151.15,110q-3.6,5.91-7.24,11.83l-4.51,7.4c-.43.71-1.15,1.75-1.87,2.88-.92-4.31-2.34-8.56-3.11-12.91,1-1.48,2.13-2.91,2.8-4l.54-.88a38.1,38.1,0,0,1,6.87-8.76,7.85,7.85,0,0,1,4-2,3.49,3.49,0,0,1,3.71,1.94C152.88,107,152,108.63,151.15,110Z" transform="translate(0.01 0.02)"/><path class="cls-3" d="M164.4,136.72a7.28,7.28,0,0,1,2.45-.72,1.17,1.17,0,0,1,.71.14,1.34,1.34,0,0,1,.49,1.1,8.61,8.61,0,0,1-2.3,6,28.48,28.48,0,0,1-5.06,4.23,22,22,0,0,0-4.91,4.37c.23-.3-.4-2.27-.47-2.69-.18-1-.37-1.93-.57-2.9-.32-1.51-1.28-3.1.11-4.13A50.22,50.22,0,0,1,164.4,136.72Z" transform="translate(0.01 0.02)"/><path class="cls-5" d="M128.75,129.15a6.46,6.46,0,0,0-.08-2.4.5.5,0,0,0-.18-.31.54.54,0,0,0-.43,0,3.57,3.57,0,0,0-2,2.5,16.81,16.81,0,0,0-.39,3.31,6,6,0,0,1-.92,3.18,2.72,2.72,0,0,0-.45.75,1.77,1.77,0,0,0,.34,1.37,11,11,0,0,0,2.73,3,1.07,1.07,0,0,0,.47.25c1.9.39,1.56-4.38,1.15-5.35C128.06,133.34,128.53,131.5,128.75,129.15Z" transform="translate(0.01 0.02)"/><path class="cls-6" d="M141.58,128.06c.45,0,1,.17,1,.62a1,1,0,0,1-.17.56c-1.08,2-3.19,3.41-3.63,5.62a20,20,0,0,0-.07,2.9,3.1,3.1,0,0,1-1.16,2.55q-.81-2.46-1.47-5c-.28-1.05-1.19-2.84-.28-3.7a10.42,10.42,0,0,1,1.46-.81,13.46,13.46,0,0,0,1.36-1.14A5.09,5.09,0,0,1,141.58,128.06Z" transform="translate(0.01 0.02)"/><path class="cls-7" d="M122.67,148.19a4.66,4.66,0,0,0-1.08,3.18,17.64,17.64,0,0,0,.48,3.39c.41,2,.64,4.26-.29,6.12a5.43,5.43,0,0,0-.68,1.49c-.16.85.11,2-.69,2.33a1,1,0,0,1-1.12-.4,2.71,2.71,0,0,1-.45-1.16,7,7,0,0,0-1.41-3.62c-.51-.52-1.26-1.14-.94-1.79,1,.16,1.92,1.46,2.8.93,2.33-1.4.15-8.25.59-10.55C120.59,144.61,126.06,144.84,122.67,148.19Z" transform="translate(0.01 0.02)"/><circle class="cls-8" cx="106.75" cy="168.7" r="1.61"/><circle class="cls-9" cx="119.69" cy="152.39" r="1.61"/><circle class="cls-10" cx="117.53" cy="146.96" r="1.61"/><circle class="cls-11" cx="122.71" cy="140.17" r="1.06"/><circle class="cls-12" cx="117.57" cy="139.11" r="1.06"/><circle class="cls-13" cx="124.32" cy="158.15" r="1.06"/><circle class="cls-14" cx="118.63" cy="166.03" r="1.06"/><circle class="cls-15" cx="139.81" cy="134.64" r="1.61"/><circle class="cls-16" cx="149.89" cy="132.11" r="1.61"/><circle class="cls-17" cx="154.13" cy="145.36" r="1.61"/><circle class="cls-18" cx="130.17" cy="128.54" r="1.06"/><path class="cls-19" d="M70.37,138.25s12.52,15.27,16.32,32.34" transform="translate(0.01 0.02)"/><polyline class="cls-19" points="69.53 144.4 69 136.51 76.95 139.32"/><path class="cls-19" d="M92.07,138.77s-13.31,14.59-18,31.43" transform="translate(0.01 0.02)"/><polyline class="cls-19" points="92.61 144.95 93.55 137.1 85.47 139.49"/><path class="cls-3" d="M304.25,136l-.16.12c-3.69,2.75-6.28,1.65-8.41,6.33s-2.86,9.73-4.86,14.41a26.25,26.25,0,0,1-7,9.52l-.76.64a29.15,29.15,0,0,1-8.14,4.61,26.34,26.34,0,0,1-12.25,1.53c-3.59-.42-7.05-1.56-10.62-2.11a33.17,33.17,0,0,0-10.43,0c-5.64.9-11.63,3.18-17,2.37a71.5,71.5,0,0,1-1-27.11,31.41,31.41,0,0,1,6.89-1.63c9.93-1.54,20.09-2.8,29.22-7,3.49-1.61,6.8-3.64,10.44-4.87,11.4-3.84,24.43.65,35.72-3.52C307.34,131.33,306.27,134.41,304.25,136Z" transform="translate(0.01 0.02)"/><path class="cls-20" d="M294.61,137.78c-.19.37-.34.81-.71,1a1.33,1.33,0,0,1-1,0,32.65,32.65,0,0,0-3.64-1,4,4,0,0,0-3.49,1,4,4,0,0,1-.86.89c-.89.5-2.24-.31-3,.42-.56.57-.19,1.52-.28,2.32-.25,2.17-3.73,2.52-4.35,4.61-.44,1.46.78,3,.6,4.48-.25,2-2.66,3-3.35,4.84s.37,4.35-1.15,5.59c-.69.56-1.77.69-2.15,1.49s.51,2,1.48,2.41,2.12.62,2.75,1.46c.35.47.48,1.08.83,1.55a3.87,3.87,0,0,0,3,1.07,6.42,6.42,0,0,0,4-.81c1.24-.92,1.67-2.55,2.19-4A20.13,20.13,0,0,1,301,152.25c1.73-.28,3.74-.46,4.75-1.9s.36-3.74-.65-5.37c-.8-1.29-1.89-2.62-2.18-4.16-.24-1.34.7-3-.16-4.12C301,134.42,295.78,135.45,294.61,137.78Z" transform="translate(0.01 0.02)"/><path class="cls-3" d="M292.3,185.62a4.74,4.74,0,0,0,1,1,4,4,0,0,0,3.15.13c4.65-1.27,8.6-4.38,11.92-7.88a67,67,0,0,0-10.24-1.76c-2.69-.18-7.19-.42-9.49,1.29S291.15,184.25,292.3,185.62Z" transform="translate(0.01 0.02)"/><path class="cls-4" d="M365.31,157.37a71.48,71.48,0,0,1-2.4,18.35l-20-6.61c-4.84-1.61-10.17-3.21-14.93-1.37-5.08,2-8.11,7.33-13,9.77a18,18,0,0,1-6.92,1.66c-1.69.11-3.41.09-5.1.06L288.12,179l-3.68-.07a14.47,14.47,0,0,1-6.91-1.23c-2.08-1.12-3.62-3.64-2.81-5.87l.08-.21h0c.45-1.09,1.37-2.14,1.58-3.2a2,2,0,0,0-.32-1.57c-.2-.3-.45-.56-.67-.84a6.12,6.12,0,0,1,.7-7.89,5,5,0,0,1,1.59-1.07,7.9,7.9,0,0,1-.54-.94,7,7,0,0,1,3.13-9.39l.23-.11a7.11,7.11,0,0,1,3.33-.7,2.35,2.35,0,0,1-.8-1.16,4.37,4.37,0,0,1,1.92-4.66c2-1.22,4.42-1.18,6.72-1.4,4.19-.39,8.22-1.74,12.35-2.58h0c1-.21,2-.39,3-.51a51.68,51.68,0,0,1,12.73.42,178.12,178.12,0,0,1,36,8.61,23.94,23.94,0,0,1,9.05,5.21A68.23,68.23,0,0,1,365.31,157.37Z" transform="translate(0.01 0.02)"/><path class="cls-3" d="M282.42,167.1a27.61,27.61,0,0,1,4.79-.66c-3.4.08-7.7-.73-11,.35-1.65.54-.82,1.71.62,1.63C278.67,168.32,280.67,167.48,282.42,167.1Z" transform="translate(0.01 0.02)"/><path class="cls-3" d="M281.78,156.78a26.58,26.58,0,0,1,4.78-.67c-3.4.08-7.7-.73-11,.35-1.64.54-.82,1.71.62,1.63C278,158,280,157.15,281.78,156.78Z" transform="translate(0.01 0.02)"/><path class="cls-3" d="M287.21,145.48a26.68,26.68,0,0,1,4.79-.66c-3.41.08-7.7-.73-11,.35-1.64.54-.81,1.71.63,1.62C283.44,146.69,285.43,145.86,287.21,145.48Z" transform="translate(0.01 0.02)"/><path class="cls-19" d="M312.67,143.17s4.3,14.78,0,25.25" transform="translate(0.01 0.02)"/><path class="cls-19" d="M309.89,146.93c-.09,0-.08-.14,0-.22a39.93,39.93,0,0,1,2.81-4.93c.07-.1.15-.2.26-.2a.2.2,0,0,1,.15.06,32.78,32.78,0,0,1,4.41,3.07" transform="translate(0.01 0.02)"/><path class="cls-19" d="M310.21,166.75a38.12,38.12,0,0,1,2.34,3.68,5.15,5.15,0,0,1,1.18-.89l3-1.84" transform="translate(0.01 0.02)"/><path class="cls-19" d="M260.19,143s-4.3,14.78,0,25.25" transform="translate(0.01 0.02)"/><path class="cls-19" d="M263,146.72c.09,0,.08-.14,0-.22a39.93,39.93,0,0,0-2.81-4.93c-.07-.1-.15-.21-.26-.2a.2.2,0,0,0-.15.06,32.78,32.78,0,0,0-4.41,3.07" transform="translate(0.01 0.02)"/><path class="cls-19" d="M262.67,166.53a41.72,41.72,0,0,0-2.34,3.69,5.15,5.15,0,0,0-1.18-.89l-3-1.84" transform="translate(0.01 0.02)"/><path class="cls-4" d="M297.61,183a.82.82,0,0,1-.44,0c-.23,0-.37-.28-.51-.48a3.44,3.44,0,0,0-1.57-1.27.89.89,0,0,1-.44.79,7,7,0,0,0-3.42-2.88A1.91,1.91,0,0,0,291,181a5.68,5.68,0,0,0,.91,1.63l1.55,2.14a4.42,4.42,0,0,0,1,1.15,4.08,4.08,0,0,0,3.21.19,25.4,25.4,0,0,0,10.75-5.56c.54-.48,1.11-1.11,1-1.82-.05-.27-3.52-.63-3.94-.62a2.21,2.21,0,0,0-1.94,1A14.31,14.31,0,0,1,297.61,183Z" transform="translate(0.01 0.02)"/><circle class="cls-21" cx="289.49" cy="136.83" r="0.75"/><circle class="cls-22" cx="276.49" cy="145.72" r="0.75"/><circle class="cls-23" cx="286.55" cy="138.23" r="0.75"/><circle class="cls-24" cx="283.23" cy="137.91" r="0.75"/><circle class="cls-25" cx="275.41" cy="151.42" r="1.06"/><circle class="cls-26" cx="280.63" cy="143.6" r="1.06"/></svg>