<svg id="Layer_1" data-name="Layer 1" xmlns="http://www.w3.org/2000/svg" xmlns:xlink="http://www.w3.org/1999/xlink" viewBox="0 0 365.81 304.38"><defs><style>.cls-1,.cls-2{fill:#b0ff00;}.cls-1{opacity:0.4;isolation:isolate;}.cls-3{fill:url(#linear-gradient);}.cls-4{fill:#863f1b;}.cls-5{fill:#f6f4f6;}.cls-6{fill:#080608;}.cls-7{fill:url(#linear-gradient-2);}.cls-8{fill:url(#linear-gradient-3);}.cls-9{fill:url(#linear-gradient-4);}.cls-10{fill:url(#linear-gradient-5);}</style><linearGradient id="linear-gradient" x1="272.45" y1="7.72" x2="130.13" y2="19.16" gradientTransform="matrix(1, 0, 0, -1, -53.12, 281.33)" gradientUnits="userSpaceOnUse"><stop offset="0.01"/><stop offset="0.13" stop-opacity="0.69"/><stop offset="1" stop-opacity="0"/></linearGradient><linearGradient id="linear-gradient-2" x1="222.22" y1="167.67" x2="243.15" y2="172.22" xlink:href="#linear-gradient"/><linearGradient id="linear-gradient-3" x1="152.04" y1="172.11" x2="218.76" y2="175.81" xlink:href="#linear-gradient"/><linearGradient id="linear-gradient-4" x1="164.79" y1="177.9" x2="241.34" y2="177.05" xlink:href="#linear-gradient"/><linearGradient id="linear-gradient-5" x1="202.13" y1="150.25" x2="195.63" y2="134.08" xlink:href="#linear-gradient"/></defs><title>wearing_a_mask_</title><path class="cls-1" d="M360.19,258a41.07,41.07,0,0,1-6.87,9.76c-13.08,13.72-34.2,16.27-53,13.68s-36.83-9.4-55.69-11.22c-30-2.89-59.53,7-88,16.7s-58,19.69-88,17C40.38,301.41,11.46,284.5,2.74,258a50.6,50.6,0,0,1-1.37-5c-8.93-40.22,29-77.87,26.41-119-.72-11.49-4.62-22.54-6.25-33.94C16.09,62,39.53,21.65,75.26,7.49c62.7-24.83,130.52,21,195.84,8.75C336.22,4.07,344.74,34.76,338.57,98a160.56,160.56,0,0,0,6.8,64c5.68,17.82,14.5,34.65,18.51,52.92C367,229.25,366.68,245.24,360.19,258Z" transform="translate(-0.01 0.01)"/><path class="cls-2" d="M360.19,258a41.07,41.07,0,0,1-6.87,9.76c-13.08,13.72-34.2,16.27-53,13.68s-36.83-9.4-55.69-11.22c-30-2.89-59.53,7-88,16.7s-58,19.69-88,17C40.38,301.41,11.46,284.5,2.74,258Z" transform="translate(-0.01 0.01)"/><path class="cls-3" d="M57.52,270.65c-2.89-2.62-.79-6.91,3-8.73s8.63-1.88,13.15-1.87c34.39,0,70-1.9,104.2.19-10.88,9.79-34.18,9.54-49.19,10.19C105,271.46,81.23,271.53,57.52,270.65Z" transform="translate(-0.01 0.01)"/><path class="cls-2" d="M135.24,116.14q-.69-11.53-.47-23.11c.11-5.58.55-11.63,4.21-15.85a22.13,22.13,0,0,1,5.77-4.41,100.43,100.43,0,0,1,9.95-5.12c5.44,1.19,11.58-2,16.5.55,2.39,1.26,4,3.6,5.37,5.93,6.88,11.79,9.65,25.63,10,39.28s-1.53,27.25-3.43,40.77c-12.15,2.54-24.73.35-36.95-1.85a8.49,8.49,0,0,1-3.1-1c-2.53-1.59-2.68-5.13-2.78-8.11C140.08,135.14,135.72,124.24,135.24,116.14Z" transform="translate(-0.01 0.01)"/><path class="cls-4" d="M173.23,55.08c0,1.68-.07,3.5-1.15,4.79a5.2,5.2,0,0,1-3.29,1.64,21.35,21.35,0,0,1-3.75,0,.5.5,0,0,0-.61.36.44.44,0,0,0,0,.2,35.87,35.87,0,0,0,0,7.47,2.19,2.19,0,0,1-.1,1.19,1.94,1.94,0,0,1-1.28.84,9.3,9.3,0,0,1-2.86.5c-2.08,0-4-1-5.82-2.06a58.92,58.92,0,0,0-.57-10.78c-.66-4.61-1.88-9.23-1.37-13.86a8.87,8.87,0,0,1,1.9-5c1.66-1.88,4.35-2.48,6.86-2.48a17.39,17.39,0,0,1,9.44,2.59c1,.7,1.15,1.6,1.39,2.79.36,1.82.65,3.65.85,5.49A60.71,60.71,0,0,1,173.23,55.08Z" transform="translate(-0.01 0.01)"/><path d="M168.42,41.62c-2.36.54-4.95-.09-7.19.83-3.12,1.27-4.45,5.32-3.41,8.52-.9.33-1.06-1.3-1.76-2s-2.27.23-2.38,1.36a6.76,6.76,0,0,0,1,3.21,9.57,9.57,0,0,1,.42,6.31c-.14.49-.5,1.07-1,.94a1,1,0,0,1-.44-.33c-1.08-1.39-.54-3.66-1.78-4.91a8.56,8.56,0,0,0-1.21-.86c-1.9-1.38-2.33-4.09-1.89-6.4a4.41,4.41,0,0,0,.1-2.28,7.59,7.59,0,0,0-.91-1.46,3.5,3.5,0,0,1,3.63-5.22,4.37,4.37,0,0,1,7.18-3.75,7.17,7.17,0,0,1,2.69-2.88,2.62,2.62,0,0,1,3.4,1c2.35-2.13,5.8-3.76,7.75-.28S172.1,40.78,168.42,41.62Z" transform="translate(-0.01 0.01)"/><path class="cls-5" d="M160,51.88a6.52,6.52,0,0,0,2.31,1,7.28,7.28,0,0,0,2.5-.26,35.86,35.86,0,0,1,7.93-.78,1.1,1.1,0,0,1,.64.14,1,1,0,0,1,.32.46,8.16,8.16,0,0,1-.29,7.27,1.94,1.94,0,0,1-.69.81,2.19,2.19,0,0,1-.91.23q-3.81.42-7.64.58A3.55,3.55,0,0,1,162,61c-.32-.21-.55-.51-.86-.73a4.85,4.85,0,0,0-1.41-.59A9.9,9.9,0,0,1,154,55.17a25.72,25.72,0,0,0,6.84,3.35.68.68,0,0,0,.56,0,.64.64,0,0,0,.22-.52l.36-3.17a1.14,1.14,0,0,0,0-.58,1.21,1.21,0,0,0-.53-.52c-1.26-.78-3.94-1.81-4.59-3.16C157.64,50,159.33,51.48,160,51.88Z" transform="translate(-0.01 0.01)"/><polygon class="cls-6" points="143.09 151.37 147.31 259.28 158.02 259.28 171.87 153.51 143.09 151.37"/><polygon class="cls-6" points="159.13 152.77 166.42 259.28 177.12 259.28 184.42 153.51 159.13 152.77"/><path class="cls-6" d="M146.53,265.33a60,60,0,0,0,10.8.59,15.44,15.44,0,0,0,4.74-.51,7.17,7.17,0,0,1,2.61-.65A2.11,2.11,0,0,0,164,263a12.19,12.19,0,0,0-7.37-3.75c-2.3-.38-5.76-.8-8-.05S146.47,263.33,146.53,265.33Z" transform="translate(-0.01 0.01)"/><path class="cls-6" d="M166.25,264.52a60,60,0,0,0,10.8.59,15.23,15.23,0,0,0,4.75-.51,7.17,7.17,0,0,1,2.61-.65,2.17,2.17,0,0,0-.68-1.72,12.24,12.24,0,0,0-7.37-3.75c-2.31-.38-5.77-.8-8,0S166.19,262.5,166.25,264.52Z" transform="translate(-0.01 0.01)"/><path class="cls-2" d="M142.82,123.91,153,132a48.89,48.89,0,0,1-3,6.74,4.05,4.05,0,0,1-1.4,1.72c-1.25.73-2.83.06-4.11-.6l-12-6.27a25.48,25.48,0,0,1-5.67-3.61c-3.39-3.12-4.88-7.89-5-12.5s1-9.14,2.19-13.6l3.13-12.33c2-7.86,4.48-16.42,11.2-21a36.56,36.56,0,0,1,6.57-3.19,4.52,4.52,0,0,0,1.83-1.15,5.26,5.26,0,0,0,.82-2.09c.63-2.49,2.63-4.74,5.14-4.18-.2.83.77,1.44,1.58,1.74a64.64,64.64,0,0,0,6.18,2,2.14,2.14,0,0,1,1.69,3.07l-1,7.76c-.14,1.14,2.62,1.77,3.37.89a4.69,4.69,0,0,0,.65-3.31l-.6-11c4.33.09,7.45,5.68,5.24,9.4,3-.67,6.11.9,8.14,3.19s3.15,5.22,4.25,8.07c1.56,4.07,3.12,8.14,4.32,12.33,4.63,16.07,3.86,33.14,2.65,49.82-.31,4.25-1,9.15-4.71,11.32a12.92,12.92,0,0,1-5.73,1.33,193.21,193.21,0,0,1-41.21-1.48c.2-5.47.78-14.22,1-19.69,2.72.79,4.08,7,6.82,7.66,2.47.65,5.12-.71,6.73-2.69a20.3,20.3,0,0,0,3.19-6.92,2.62,2.62,0,0,0-.88-3.61,1.55,1.55,0,0,0-.36-.19C150.55,127.47,146.24,126.12,142.82,123.91Z" transform="translate(-0.01 0.01)"/><path class="cls-7" d="M184,108a115,115,0,0,1-3.08-18.14,71.3,71.3,0,0,1,7.47,40.76c0-1.17-2.32-2.34-2.5-3.75-.23-1.83.72-4.25.64-6.22C186.35,116.33,185.08,112.19,184,108Z" transform="translate(-0.01 0.01)"/><path class="cls-4" d="M152.39,142.67a.82.82,0,0,0,.57.13.69.69,0,0,0,.36-.27,16.17,16.17,0,0,0,3.88-7.41,7.39,7.39,0,0,1-3.9-1.77c-.21-.18-.45-.39-.71-.33s-.38.29-.49.51l-1.52,3a12.24,12.24,0,0,0-1.51,3C148.88,141,151.25,142.08,152.39,142.67Z" transform="translate(-0.01 0.01)"/><path class="cls-8" d="M146.93,125.68l-4.75-4c-1.45-1.22-3-2.55-3.5-4.37a9.4,9.4,0,0,1,.6-5.47l3.66-11.71-5.52-4.49,4.46.69a2,2,0,0,0,1.27-.09A1.86,1.86,0,0,0,143.9,95a20.71,20.71,0,0,0-1.38-13.86l3.19,2.61a1.48,1.48,0,0,0,.8.42c.51,0,.89-.45,1.17-.87l3.94-5.89a71.7,71.7,0,0,0-4.11,15,63.44,63.44,0,0,1,16.29.06c-3.27.7-6.52,1.54-9.72,2.51a7.91,7.91,0,0,0-3,1.38,6.44,6.44,0,0,0-1.85,4.74c-.06,1.74.2,3.5,0,5.23a64.93,64.93,0,0,1,15,.64l-8,1.14a9.26,9.26,0,0,0-4.12,1.26c-2.54,1.77-2.68,5.42-2.56,8.52l19,.11a71.19,71.19,0,0,0-13.41,2.56A9.24,9.24,0,0,0,150.9,123a3.84,3.84,0,0,0-.47,4.61,8.14,8.14,0,0,0,1.76,1.5,9,9,0,0,1,3.42,5.93,105.75,105.75,0,0,1-14.9-14.49" transform="translate(-0.01 0.01)"/><path class="cls-9" d="M166.55,73.83c-.91,3.86-2.07,8-.45,11.63a69.81,69.81,0,0,1,10.22.46l-8.57,1.33a47.55,47.55,0,0,0,.83,15,68.9,68.9,0,0,1,10.75.3q-4,.75-7.92,1.77a2.11,2.11,0,0,0-1.26.67,2.17,2.17,0,0,0-.15,1.54l1.59,10.09a22.84,22.84,0,0,1,6.44-.4c-.9,1.25-2.82,1-4.14,1.79-1.55.9-1.94,3-1.87,4.76s.41,3.66-.28,5.32a18.36,18.36,0,0,0,6.85.18l-4.48.76a2.22,2.22,0,0,0-1.4.58,2.31,2.31,0,0,0-.39,1.59q0,5.7.18,11.39c-1.87-15.4-3.73-30.83-6.79-46-1.2-5.93-2.58-11.88-2.55-17.92a6.36,6.36,0,0,1,.22-1.94,13.31,13.31,0,0,1,1.43-2.41,8.31,8.31,0,0,0,1-4.53c0-1-1-3.31,0-4C168.11,64,166.79,72.81,166.55,73.83Z" transform="translate(-0.01 0.01)"/><path class="cls-4" d="M185.66,127.14c-.29,1.53-.52,3.06-.69,4.61a6.3,6.3,0,0,0,0,1.84,6.63,6.63,0,0,0,.9,2.08l1.81,3.14c.2.35.45.74.85.81a1,1,0,0,0,.88-.38,3.48,3.48,0,0,0,.61-2.14,22.72,22.72,0,0,0-.39-6.68C189.11,128.43,187.56,127.76,185.66,127.14Z" transform="translate(-0.01 0.01)"/><path class="cls-10" d="M138.59,141.33a7.31,7.31,0,0,0,1.83,2.12l4.3,3.83c.63.56,1.48,1.15,2.23.78a2.38,2.38,0,0,0,.8-.81,8.32,8.32,0,0,1,2.7-2.34c.65-.36,1.45-.75,1.55-1.48s-.68-1.44-1.38-1.86l-1.63-1a1.65,1.65,0,0,0-.71-.29,2,2,0,0,0-.83.19c-2.11.71-4.33-.56-6.19-1.77-.64-.42-2.11-1.82-2.84-1S138.25,140.55,138.59,141.33Z" transform="translate(-0.01 0.01)"/></svg>