<svg id="Layer_1" data-name="Layer 1" xmlns="http://www.w3.org/2000/svg" xmlns:xlink="http://www.w3.org/1999/xlink" viewBox="0 0 407.22 332.41"><defs><style>.cls-1,.cls-2,.cls-3{fill:#b0ff00;}.cls-1{opacity:0.48;}.cls-1,.cls-14,.cls-2{isolation:isolate;}.cls-2{opacity:0.18;}.cls-4{fill:url(#linear-gradient);}.cls-5{fill:url(#linear-gradient-2);}.cls-6{fill:#7b633e;}.cls-7{fill:url(#linear-gradient-3);}.cls-14,.cls-8{fill:#fff;}.cls-9{fill:none;stroke:#fff;stroke-miterlimit:10;stroke-width:3.3px;}.cls-10{fill:url(#linear-gradient-4);}.cls-11{fill:url(#linear-gradient-5);}.cls-12{fill:url(#linear-gradient-6);}.cls-13{fill:url(#linear-gradient-7);}.cls-14{opacity:0.51;}</style><linearGradient id="linear-gradient" x1="154.44" y1="113.36" x2="204.69" y2="94.21" gradientTransform="matrix(1, 0, 0, -1, -4.89, 321.22)" gradientUnits="userSpaceOnUse"><stop offset="0.01"/><stop offset="0.12" stop-opacity="0.75"/><stop offset="1" stop-opacity="0"/></linearGradient><linearGradient id="linear-gradient-2" x1="128.93" y1="57.94" x2="113.68" y2="149.91" xlink:href="#linear-gradient"/><linearGradient id="linear-gradient-3" x1="134.35" y1="63.07" x2="159.47" y2="119.6" xlink:href="#linear-gradient"/><linearGradient id="linear-gradient-4" x1="262.98" y1="120.9" x2="219.92" y2="-23.78" gradientTransform="matrix(1, 0, 0, -1, 0, 333.99)" xlink:href="#linear-gradient"/><linearGradient id="linear-gradient-5" x1="85.31" y1="114.04" x2="127.03" y2="-83.81" gradientTransform="matrix(1, 0, 0, -1, 0, 333.99)" xlink:href="#linear-gradient"/><linearGradient id="linear-gradient-6" x1="264.92" y1="65.94" x2="265.51" y2="93.16" gradientTransform="matrix(1, 0, 0, -1, -4.89, 321.21)" xlink:href="#linear-gradient"/><linearGradient id="linear-gradient-7" x1="307.69" y1="49.13" x2="311.73" y2="151.42" xlink:href="#linear-gradient"/></defs><title>web_developer</title><rect class="cls-1" x="36.21" y="12.3" width="370.4" height="237.25" rx="8.95"/><path class="cls-2" d="M399.28,266.88c-.27,7.77-2,15.68-6.4,22.12-5.48,8.11-14.38,13.13-23,17.85L345.44,320.3c-10.71,5.9-22,11.94-34.21,12.11-8.64.13-17-2.72-25.31-5.11-38.81-11.2-79.69-12.77-119.81-9.94-20.55,1.45-41,4-61.36,7.07-16.29,2.42-35.84,10.47-50.53.94-16-10.4-25.82-27.24-34.86-43.59C11.49,267.59,3.51,253.05.91,237c-4-24.74,5.58-50.15,20.57-70.25a162,162,0,0,1,14.73-17v90.83a9,9,0,0,0,8.95,9H397.65A70.48,70.48,0,0,1,399.28,266.88Z" transform="translate(0 -0.01)"/><path class="cls-2" d="M267.58,12.32H173.33a56.38,56.38,0,0,1,11.48-6.76c7.45-3.25,15.57-4.7,23.67-5.28C228.86-1.19,249.3,3.31,267.58,12.32Z" transform="translate(0 -0.01)"/><path class="cls-3" d="M181.34,219.7a14.64,14.64,0,0,0,3.27,3.16,15.27,15.27,0,0,0,6,1.78l31.92,4.81a1.89,1.89,0,0,1,.89.3,1.81,1.81,0,0,1,.47,1.44,56.14,56.14,0,0,1-2.39,17.66,2.45,2.45,0,0,1-.65,1.24,2.53,2.53,0,0,1-1.46.44c-10.74.91-21.53.62-32.3.33a21.65,21.65,0,0,1-5.38-.59c-3-.84-5.45-2.89-7.71-5-4.85-4.51-24.48-22.64-25.67-25.1a66.9,66.9,0,0,1-3.8-10.92c-1-3.6,6.31-4.05,6.16-7.79a24.17,24.17,0,0,1,.92-7.66,13.1,13.1,0,0,1,3.2-5.92c1.1-1-.6-7.78.92-7.86,1.76,6,9.72,18,13.18,23.14A194,194,0,0,0,181.34,219.7Z" transform="translate(0 -0.01)"/><path class="cls-4" d="M181.34,219.7a14.64,14.64,0,0,0,3.27,3.16,15.27,15.27,0,0,0,6,1.78l31.92,4.81a1.89,1.89,0,0,1,.89.3,1.81,1.81,0,0,1,.47,1.44,56.14,56.14,0,0,1-2.39,17.66,2.45,2.45,0,0,1-.65,1.24,2.53,2.53,0,0,1-1.46.44c-10.74.91-21.53.62-32.3.33a21.65,21.65,0,0,1-5.38-.59c-3-.84-5.45-2.89-7.71-5-4.85-4.51-24.48-22.64-25.67-25.1a66.9,66.9,0,0,1-3.8-10.92c-1-3.6,6.31-4.05,6.16-7.79a24.17,24.17,0,0,1,.92-7.66,13.1,13.1,0,0,1,3.2-5.92c1.1-1-.6-7.78.92-7.86,1.76,6,9.72,18,13.18,23.14A194,194,0,0,0,181.34,219.7Z" transform="translate(0 -0.01)"/><path class="cls-3" d="M100.57,169a58.54,58.54,0,0,0-6,6.2c-4.42,5.43-7.36,11.89-10.1,18.33-7.29,17.14-13.64,35.47-11.75,54a7.09,7.09,0,0,0,.88,3.18A6.22,6.22,0,0,0,77,253c3.51,1.12,7.26,1.17,11,1.2,14.41.13,28.84.26,43.24-.44,2.23-.11,4.59-.28,6.44-1.54a10.38,10.38,0,0,0,3.14-3.93c3.87-7.28,5-15.7,8-23.36,4-10,15-19.09,12.68-29.63C151.61,150.51,105.11,164.91,100.57,169Z" transform="translate(0 -0.01)"/><path class="cls-5" d="M100.57,169a58.54,58.54,0,0,0-6,6.2c-4.42,5.43-7.36,11.89-10.1,18.33-7.29,17.14-13.64,35.47-11.75,54a7.09,7.09,0,0,0,.88,3.18A6.22,6.22,0,0,0,77,253c3.51,1.12,7.26,1.17,11,1.2,14.41.13,28.84.26,43.24-.44,2.23-.11,4.59-.28,6.44-1.54a10.38,10.38,0,0,0,3.14-3.93c3.87-7.28,5-15.7,8-23.36,4-10,15-19.09,12.68-29.63C151.61,150.51,105.11,164.91,100.57,169Z" transform="translate(0 -0.01)"/><path class="cls-6" d="M165.69,132c-1.69,8.21-3.46,16.64-8,23.71a18.44,18.44,0,0,1-6.93,6.82c-2.93,1.47-6.65,1.67-9.39-.13-1.37-.89-2.87-2.29-4.36-1.63-1.08.49-1.43,1.83-1.58,3a30.21,30.21,0,0,0,.12,8.65,7.28,7.28,0,0,1,.14,2.46,4.07,4.07,0,0,1-3.25,3,7.69,7.69,0,0,1-4.53-.71,14.64,14.64,0,0,1-8.44-10.82,35.06,35.06,0,0,1-.3-4.8c-.19-7.12-1.32-14.21-1.09-21.32s2-14.51,6.83-19.76a31.14,31.14,0,0,1,9.76-6.76c5.45-2.6,11.53-4.43,17.49-3.48a16.62,16.62,0,0,1,11.57,7.72C166.85,122.71,166.86,126.28,165.69,132Z" transform="translate(0 -0.01)"/><path d="M110.86,107.08c-4.22,6.75-3.54,14.25-2.78,22.11.67,6.93,2.44,14.42,8,18.64.55.42,1.36.8,1.89.35a1.61,1.61,0,0,0,.43-.93,30.71,30.71,0,0,0,.62-8c-.11-2-.43-4.12.09-6.09s2.19-3.84,4.23-3.78c1.89,0,3.41,1.76,3.88,3.6a13.41,13.41,0,0,1-.21,5.64c.3.75,1.35-.15,1.53-.93,1.38-6.28,1.69-13.31,6.05-18a7.84,7.84,0,0,1,1.88,3.27,5,5,0,0,1,5.15-1.28,8.53,8.53,0,0,1,3.44,2.25c4.63,4.67,21.26,3.07,26.24-6.12a10.19,10.19,0,0,0,1.44-5.79c-.84-10.17-19.89-15.27-21.05-15.58C139,93,119,94.06,110.86,107.08Z" transform="translate(0 -0.01)"/><path class="cls-3" d="M103.63,179.28c-3.36,2.44-5,6.73-5.1,10.87s4.28,30.41,8.41,37.87c3.2,5.8,9.87,20.94,20,25.12,3,1.24,47.35.72,67.93-1.51-.13-4.87-.37-9.74-.69-14.61a2.74,2.74,0,0,0-.55-1.79c-.52-.54-1.26-4.07-2-4.07-12,.05-24.1,3.72-36.1,4a21.18,21.18,0,0,1-5.21-.31,14.86,14.86,0,0,1-4-1.64c-9.26-5.24-14.38-15.53-18-25.54-2.77-7.72-5-15.71-9-22.92-1.42-2.57-2.69-5.07-5.49-6.2C110.54,177.22,106.68,177.07,103.63,179.28Z" transform="translate(0 -0.01)"/><path class="cls-7" d="M103.63,179.28c-3.36,2.44-5,6.73-5.1,10.87s4.28,30.41,8.41,37.87c3.2,5.8,9.87,20.94,20,25.12,3,1.24,47.35.72,67.93-1.51-.13-4.87-.37-9.74-.69-14.61a2.74,2.74,0,0,0-.55-1.79c-.52-.54-1.26-4.07-2-4.07-12,.05-24.1,3.72-36.1,4a21.18,21.18,0,0,1-5.21-.31,14.86,14.86,0,0,1-4-1.64c-9.26-5.24-14.38-15.53-18-25.54-2.77-7.72-5-15.71-9-22.92-1.42-2.57-2.69-5.07-5.49-6.2C110.54,177.22,106.68,177.07,103.63,179.28Z" transform="translate(0 -0.01)"/><path class="cls-6" d="M193.11,230.22c6.23-.59,13.15.8,17.1,5.65a3,3,0,0,1,.78,1.6,2.63,2.63,0,0,1-.48,1.51c-2.33,3.87-7.39,4.79-11.64,6.32a30.22,30.22,0,0,0-6.29,3.12,10,10,0,0,1-3.76,1.86c-3,.45-5.49-2.23-6.85-4.91-1.56-3-4-9.16-1-12C183.42,231.12,190,230.5,193.11,230.22Z" transform="translate(0 -0.01)"/><path class="cls-6" d="M244.7,228.68a8.51,8.51,0,0,1,2.79,2.55,3.68,3.68,0,0,1,.26,3.63,5,5,0,0,1-1.87,1.68c-5.53,3.29-12.31,3.88-17.91,7a9.81,9.81,0,0,1-3.86,1.68,5.32,5.32,0,0,1-4.28-2,13.61,13.61,0,0,1-2.31-4.27C211,221.75,235.28,222.68,244.7,228.68Z" transform="translate(0 -0.01)"/><path class="cls-8" d="M86.23,221h25.91v21.28a7.5,7.5,0,0,1-7.5,7.5H93.73a7.5,7.5,0,0,1-7.5-7.5V221Z" transform="translate(0 -0.01)"/><path class="cls-9" d="M110.39,226.16h7.85a6.25,6.25,0,0,1,6.25,6.25V235a6.25,6.25,0,0,1-6.25,6.25h-7.85V226.16Z" transform="translate(0 -0.01)"/><path class="cls-3" d="M50.68,249.32h351a5.56,5.56,0,0,1,5.56,5.56h0a5.56,5.56,0,0,1-5.56,5.55h-351a5.56,5.56,0,0,1-5.56-5.55h0A5.56,5.56,0,0,1,50.68,249.32Z" transform="translate(0 -0.01)"/><rect class="cls-3" x="138.75" y="260.59" width="198.39" height="68.81"/><rect class="cls-3" x="62.17" y="260.59" width="77.93" height="68.81"/><rect class="cls-10" x="140.06" y="260.59" width="197.09" height="68.81"/><rect class="cls-11" x="62.17" y="260.59" width="77.93" height="68.81"/><path class="cls-2" d="M406.6,21.27v43.8H36.21V21.27a9,9,0,0,1,8.95-9H397.65A9,9,0,0,1,406.6,21.27Z" transform="translate(0 -0.01)"/><path class="cls-3" d="M324.52,249.13H196.08a6.52,6.52,0,0,1-6.52-6.52h0a6.52,6.52,0,0,1,6.52-6.52H324.52a6.52,6.52,0,0,1,6.52,6.52h0A6.52,6.52,0,0,1,324.52,249.13Z" transform="translate(0 -0.01)"/><path class="cls-12" d="M324.52,249.13H196.08a6.52,6.52,0,0,1-6.52-6.52h0a6.52,6.52,0,0,1,6.52-6.52H324.52a6.52,6.52,0,0,1,6.52,6.52h0A6.52,6.52,0,0,1,324.52,249.13Z" transform="translate(0 -0.01)"/><path class="cls-3" d="M240.62,249.15h98.57l26-65.93a5.8,5.8,0,0,0-5.39-7.92H282.45a18.67,18.67,0,0,0-17.34,11.82Z" transform="translate(0 -0.01)"/><path class="cls-3" d="M245.63,249.22h93.62l24.69-62.63a5.5,5.5,0,0,0-3.1-7.14,5.57,5.57,0,0,0-2-.38H285.36a17.74,17.74,0,0,0-16.5,11.22Z" transform="translate(0 -0.01)"/><path class="cls-13" d="M245.63,249.22h93.62l24.69-62.63a5.5,5.5,0,0,0-3.1-7.14,5.57,5.57,0,0,0-2-.38H285.36a17.74,17.74,0,0,0-16.5,11.22Z" transform="translate(0 -0.01)"/><rect class="cls-14" x="213.02" y="154.6" width="138.6" height="7.8"/><rect class="cls-8" x="213.02" y="141.25" width="98.53" height="7.8"/><rect class="cls-8" x="325.02" y="141.25" width="65.96" height="7.8"/><rect class="cls-8" x="289.34" y="91.87" width="101.41" height="6.93"/><rect class="cls-14" x="268.1" y="104.18" width="108.49" height="6.93"/><rect class="cls-8" x="214.9" y="91.87" width="66.7" height="6.93"/><rect class="cls-8" x="244.16" y="116.12" width="146.59" height="6.93"/><rect class="cls-14" x="214.9" y="116.12" width="21.52" height="6.93"/><rect class="cls-14" x="293.99" y="128.43" width="96.76" height="6.93"/><rect class="cls-8" x="214.9" y="128.43" width="66.7" height="6.93"/><rect class="cls-8" x="214.9" y="103.89" width="42.89" height="6.93"/><rect class="cls-8" x="252.25" y="68.54" width="101.41" height="6.93"/><rect class="cls-14" x="231.01" y="80.85" width="108.49" height="6.93"/><rect class="cls-8" x="177.82" y="68.54" width="66.7" height="6.93"/><rect class="cls-8" x="251.35" y="54.19" width="101.41" height="6.93"/><rect class="cls-8" x="176.92" y="41.17" width="66.7" height="6.93"/><rect class="cls-8" x="176.92" y="29.29" width="66.7" height="6.93"/><rect class="cls-8" x="177.82" y="80.56" width="42.89" height="6.93"/></svg>